<?xml version="1.0" encoding="utf-8"?>
<!-- Generator: Adobe Illustrator 16.0.0, SVG Export Plug-In . SVG Version: 6.00 Build 0)  -->
<!DOCTYPE svg PUBLIC "-//W3C//DTD SVG 1.1//EN" "http://www.w3.org/Graphics/SVG/1.1/DTD/svg11.dtd">
<svg version="1.1" id="Layer_1" xmlns="http://www.w3.org/2000/svg" xmlns:xlink="http://www.w3.org/1999/xlink" x="0px" y="0px"
	 width="16.833px" height="16.836px" viewBox="0 0 16.833 16.836" enable-background="new 0 0 16.833 16.836" xml:space="preserve">
<polygon fill="#80907F" points="71.145,-321.675 71.145,-317.675 86.039,-317.675 86.039,-300.339 19.993,-300.339 19.993,-310.841 
	15.993,-310.841 15.993,-296.339 90.039,-296.339 90.039,-321.675 "/>
<polygon fill="#80907F" points="214.924,-223.057 214.924,-219.057 230.614,-219.057 230.614,-201.721 137.384,-201.721 
	137.384,-212.223 133.384,-212.223 133.384,-197.721 234.614,-197.721 234.614,-223.057 "/>
<polygon fill="#80907F" points="485.43,-53.168 485.43,-49.168 501.903,-49.168 501.903,-31.832 416.426,-31.832 416.426,-42.334 
	412.426,-42.334 412.426,-27.832 505.903,-27.832 505.903,-53.168 "/>
<polygon fill="#80907F" points="323.68,-154.312 323.68,-150.312 339.383,-150.312 339.383,-132.976 287.009,-132.976 
	287.002,-132.976 287.002,-143.478 283.002,-143.478 283.002,-128.976 283.009,-128.982 283.009,-128.976 287.009,-128.976 
	343.383,-128.976 343.383,-154.312 "/>
<g>
	<path fill-rule="evenodd" clip-rule="evenodd" fill="#FFFFFF" d="M0.003,8.399c0-2.268-0.002-4.535,0.001-6.803
		c0.003-1.482,0.094-1.589,1.52-1.591c4.618-0.007,9.235-0.008,13.853,0.001c1.288,0.002,1.449,0.163,1.451,1.406
		c0.006,4.7,0.008,9.4,0,14.1c-0.002,1.148-0.146,1.288-1.274,1.309c-0.989,0.018-1.98-0.025-2.968,0.014
		c-0.675,0.025-0.977-0.199-0.963-0.908c0.029-1.525,0.022-3.051,0.003-4.576c-0.008-0.646,0.195-0.992,0.91-1.02
		c0.414-0.016,1.037-0.104,1.184-0.371c0.261-0.473,0.258-1.105,0.301-1.675c0.01-0.127-0.227-0.326-0.392-0.398
		c-0.178-0.078-0.404-0.049-0.609-0.061c-1.262-0.076-1.383-0.18-1.395-1.191c-0.014-1.244,0.286-1.604,1.413-1.697
		c1.173-0.096,1.45-0.393,1.221-1.543c-0.062-0.309-0.447-0.742-0.737-0.787c-2.871-0.451-4.651,0.971-4.564,3.672
		C9,7.657,8.961,7.687,7.619,7.819C7.038,7.877,6.862,8.132,6.83,8.681c-0.082,1.382-0.014,1.523,1.374,1.657
		c0.6,0.059,0.768,0.336,0.765,0.873c-0.009,1.608-0.009,3.217,0.006,4.824c0.005,0.571-0.226,0.801-0.811,0.796
		c-2.35-0.02-4.7,0.011-7.05-0.016c-0.908-0.011-1.1-0.247-1.105-1.242C-0.006,13.182,0.003,10.791,0.003,8.399z"/>
	<path fill-rule="evenodd" clip-rule="evenodd" fill="#FFFFFF" d="M80.721,1.655c0.074,0.613-0.705,1.277,0.332,1.449
		c-0.094,0.203-0.133,0.483-0.291,0.597c-0.758,0.54-0.855,1.289-0.936,2.151c-0.445,4.817-4.336,9.04-10.072,8.736
		c-1.125-0.06-2.235-0.468-3.345-0.746c-0.153-0.039-0.262-0.259-0.391-0.395c0.155-0.112,0.294-0.27,0.468-0.327
		c0.775-0.256,1.568-0.463,2.338-0.737c0.191-0.067,0.438-0.321,0.438-0.489c0-0.158-0.277-0.334-0.456-0.473
		c-0.478-0.373-1.003-0.693-1.442-1.105c-0.275-0.26-0.629-0.645-0.006-0.986c0.035-0.02-0.05-0.358-0.148-0.498
		c-0.465-0.659-0.979-1.284-1.419-1.957c-0.103-0.157-0.05-0.634,0.034-0.662c1.035-0.351,0.238-0.866,0.16-1.328
		c-0.121-0.711-0.328-1.447-0.245-2.143c0.095-0.79,0.448-0.854,1.04-0.282c1.398,1.348,3.02,2.252,4.938,2.607
		c1.134,0.21,1.148,0.218,1.359-0.918c0.263-1.406,0.998-2.383,2.377-2.887c0.888-0.324,1.752-0.275,2.486,0.219
		C78.819,2.076,79.672,2.109,80.721,1.655z"/>
	<path fill-rule="evenodd" clip-rule="evenodd" fill="#FFFFFF" d="M48.484,8.349c-0.001,1.194-0.039,2.39,0.007,3.581
		c0.105,2.8-2.451,4.984-4.912,4.9c-2.345-0.082-4.695-0.063-7.04-0.004c-2.559,0.065-4.854-2.176-4.853-4.857
		c0.001-2.305,0.052-4.612-0.015-6.916c-0.081-2.808,2.35-5.111,5.075-5.045c2.222,0.054,4.449,0.072,6.67-0.01
		c2.648-0.099,5.309,2.238,5.082,5.14C48.414,6.202,48.484,7.278,48.484,8.349z M40.109,15.291c0,0.004,0,0.006,0,0.01
		c1.071,0,2.145,0.028,3.214-0.006c2.356-0.077,3.595-1.278,3.642-3.604c0.046-2.183,0.046-4.368-0.005-6.552
		c-0.052-2.24-1.192-3.475-3.419-3.565c-2.303-0.095-4.617-0.097-6.92,0.007c-2.185,0.097-3.322,1.289-3.39,3.462
		c-0.071,2.265-0.074,4.534-0.008,6.798c0.063,2.136,1.283,3.329,3.426,3.44C37.8,15.341,38.956,15.291,40.109,15.291z"/>
	<path fill-rule="evenodd" clip-rule="evenodd" fill="#FFFFFF" d="M44.465,8.384c0.043,2.256-2.042,4.379-4.317,4.397
		c-2.291,0.018-4.368-2.009-4.412-4.304c-0.043-2.259,2.011-4.352,4.315-4.397C42.326,4.035,44.421,6.078,44.465,8.384z
		 M40.14,11.223c1.432-0.025,2.799-1.383,2.788-2.771c-0.012-1.488-1.379-2.822-2.876-2.807c-1.46,0.015-2.76,1.313-2.769,2.765
		C37.273,9.901,38.643,11.249,40.14,11.223z"/>
</g>
</svg>
