<?xml version="1.0" encoding="utf-8"?>
<!-- Generator: Adobe Illustrator 16.0.0, SVG Export Plug-In . SVG Version: 6.00 Build 0)  -->
<!DOCTYPE svg PUBLIC "-//W3C//DTD SVG 1.1//EN" "http://www.w3.org/Graphics/SVG/1.1/DTD/svg11.dtd">
<svg version="1.1" id="Layer_1" xmlns="http://www.w3.org/2000/svg" xmlns:xlink="http://www.w3.org/1999/xlink" x="0px" y="0px"
	 width="332.166px" height="98.476px" viewBox="0 0 332.166 98.476" enable-background="new 0 0 332.166 98.476"
	 xml:space="preserve">
<g>
	<path fill="#483121" d="M173.465,88.385h-17.094V62.836c0-2.275,0.827-4.286,2.459-5.975c1.649-1.708,3.696-2.575,6.087-2.575
		h8.548V88.385z M197.161,44.188h-32.244c-2.378,0-4.417-0.834-6.066-2.484c-1.645-1.641-2.48-3.683-2.48-6.062V10.098h17.094
		v16.994h10.097V0h-37.29v35.642c0,4.938,1.536,8.998,4.699,12.405l1.089,1.173l-1.071,1.188c-1.486,1.653-2.655,3.552-3.478,5.658
		c-0.823,2.09-1.24,4.371-1.24,6.771v35.64h37.29V54.287h13.599V44.188z"/>
	<polygon fill="#483121" points="40.113,26.951 33.78,26.951 33.78,81.852 25.33,81.852 25.33,26.951 18.997,26.951 18.997,18.505 
		25.33,18.505 33.78,18.505 40.113,18.505 	"/>
	<polygon fill="#483121" points="62.917,26.951 62.917,73.41 68.066,73.41 71.363,73.41 71.363,81.852 68.066,81.852 62.917,81.852 
		54.472,81.852 51.262,81.852 46.027,81.852 46.027,73.41 51.262,73.41 54.472,73.41 54.472,26.951 50.924,26.951 46.027,26.951 
		46.027,18.505 50.924,18.505 54.472,18.505 62.917,18.505 65.365,18.505 71.363,18.505 71.363,26.951 65.365,26.951 	"/>
	<polygon fill="#483121" points="85.725,26.951 85.725,41.815 98.39,41.815 98.39,50.259 85.725,50.259 85.725,73.41 98.39,73.41 
		98.39,81.852 85.725,81.852 77.276,81.852 77.276,73.41 77.276,50.259 77.276,41.815 77.276,26.951 77.276,18.505 85.725,18.505 
		98.39,18.505 98.39,26.951 	"/>
	<path fill="#483121" d="M112.748,26.951V73.41h4.223c1.186,0,2.186-0.414,3-1.229c0.814-0.816,1.226-1.819,1.226-2.998V31.175
		c0-1.184-0.411-2.186-1.226-2.999c-0.814-0.816-1.814-1.225-3-1.225H112.748z M104.301,18.505h12.669
		c1.747,0,3.396,0.334,4.943,1.013c1.547,0.674,2.884,1.577,4.012,2.701c1.126,1.126,2.027,2.463,2.701,4.013
		c0.679,1.548,1.014,3.196,1.014,4.942v38.008c0,1.745-0.335,3.388-1.014,4.938c-0.674,1.55-1.575,2.887-2.701,4.014
		c-1.127,1.125-2.465,2.026-4.012,2.703c-1.547,0.674-3.197,1.015-4.943,1.015h-12.669V18.505z"/>
	<polygon fill="#483121" points="224.238,26.951 217.904,26.951 217.904,81.852 209.458,81.852 209.458,26.951 203.121,26.951 
		203.121,18.505 209.458,18.505 217.904,18.505 224.238,18.505 	"/>
	<path fill="#483121" d="M247.042,26.951h-8.445v18.833c2.306-0.337,4.221-1.35,5.74-3.04c0.847-0.901,1.513-1.943,1.989-3.125
		c0.476-1.185,0.717-2.419,0.717-3.717V31.68V26.951z M255.487,18.505V20.7v6.251v4.729v4.222c0,4.788-1.604,8.927-4.813,12.417
		c1.516,2.081,2.703,4.322,3.544,6.716c0.85,2.391,1.269,4.771,1.269,7.133v4.227v15.457h-8.445V66.395v-4.227
		c0-1.462-0.297-2.995-0.89-4.601c-0.586-1.604-1.388-3.054-2.405-4.352l-0.085-0.085c-1.688,0.624-3.38,1.015-5.065,1.185v27.537
		h-8.448V26.951v-8.445h8.448H255.487z"/>
	<polygon fill="#483121" points="286.741,18.505 286.741,73.41 286.741,81.852 278.292,81.852 269.847,81.852 261.402,81.852 
		261.402,73.41 261.402,18.505 269.847,18.505 269.847,73.41 278.292,73.41 278.292,18.505 	"/>
	<polygon fill="#483121" points="301.096,26.951 301.096,41.815 313.765,41.815 313.765,50.259 301.096,50.259 301.096,73.41 
		313.765,73.41 313.765,81.852 301.096,81.852 292.651,81.852 292.651,73.41 292.651,50.259 292.651,41.815 292.651,26.951 
		292.651,18.505 301.096,18.505 313.765,18.505 313.765,26.951 	"/>
	<polygon fill="#80907E" points="143.25,90.396 8.032,90.396 8.032,8.032 143.25,8.032 143.25,0 0,0 0,98.431 143.25,98.431 	"/>
	<polygon fill="#80907E" points="186.809,0 186.809,8.032 324.131,8.032 324.131,90.396 186.809,90.396 186.809,98.431 
		332.166,98.431 332.166,0 	"/>
</g>
</svg>
