<?xml version="1.0" encoding="utf-8"?>
<!-- Generator: Adobe Illustrator 16.0.0, SVG Export Plug-In . SVG Version: 6.00 Build 0)  -->
<!DOCTYPE svg PUBLIC "-//W3C//DTD SVG 1.1//EN" "http://www.w3.org/Graphics/SVG/1.1/DTD/svg11.dtd">
<svg version="1.1" id="Layer_1" xmlns="http://www.w3.org/2000/svg" xmlns:xlink="http://www.w3.org/1999/xlink" x="0px" y="0px"
	 width="74.046px" height="25.336px" viewBox="0 0 74.046 25.336" enable-background="new 0 0 74.046 25.336" xml:space="preserve">
<polygon fill="#80907F" points="55.152,0 55.152,4 70.046,4 70.046,21.336 4,21.336 4,10.834 0,10.834 0,25.336 74.046,25.336 
	74.046,0 "/>
<polygon fill="#80907F" points="198.931,98.618 198.931,102.618 214.622,102.618 214.622,119.954 121.391,119.954 121.391,109.452 
	117.391,109.452 117.391,123.954 218.622,123.954 218.622,98.618 "/>
<polygon fill="#80907F" points="469.437,268.507 469.437,272.507 485.911,272.507 485.911,289.843 400.433,289.843 400.433,279.341 
	396.433,279.341 396.433,293.843 489.911,293.843 489.911,268.507 "/>
<polygon fill="#80907F" points="307.687,167.364 307.687,171.364 323.39,171.364 323.39,188.7 271.016,188.7 271.01,188.7 
	271.01,178.198 267.01,178.198 267.01,192.7 267.016,192.693 267.016,192.7 271.016,192.7 327.39,192.7 327.39,167.364 "/>
</svg>
