<?xml version="1.0" encoding="utf-8"?>
<!-- Generator: Adobe Illustrator 16.0.0, SVG Export Plug-In . SVG Version: 6.00 Build 0)  -->
<!DOCTYPE svg PUBLIC "-//W3C//DTD SVG 1.1//EN" "http://www.w3.org/Graphics/SVG/1.1/DTD/svg11.dtd">
<svg version="1.1" id="Layer_1" xmlns="http://www.w3.org/2000/svg" xmlns:xlink="http://www.w3.org/1999/xlink" x="0px" y="0px"
	 width="60.38px" height="25.336px" viewBox="0 0 60.38 25.336" enable-background="new 0 0 60.38 25.336" xml:space="preserve">
<polygon fill="#80907F" points="-211.857,-167.364 -211.857,-163.364 -196.963,-163.364 -196.963,-146.027 -263.01,-146.027 
	-263.01,-156.529 -267.01,-156.529 -267.01,-142.027 -192.963,-142.027 -192.963,-167.364 "/>
<polygon fill="#80907F" points="-68.079,-68.746 -68.079,-64.746 -52.388,-64.746 -52.388,-47.41 -145.619,-47.41 -145.619,-57.912 
	-149.619,-57.912 -149.619,-43.41 -48.388,-43.41 -48.388,-68.746 "/>
<polygon fill="#80907F" points="202.427,101.144 202.427,105.144 218.901,105.144 218.901,122.479 133.423,122.479 133.423,111.977 
	129.423,111.977 129.423,126.479 222.901,126.479 222.901,101.144 "/>
<polygon fill="#80907F" points="40.677,0 40.677,4 56.38,4 56.38,21.336 4.006,21.336 4,21.336 4,10.834 0,10.834 0,25.336 
	0.006,25.33 0.006,25.336 4.006,25.336 60.38,25.336 60.38,0 "/>
</svg>
