<?xml version="1.0" encoding="utf-8"?>
<!-- Generator: Adobe Illustrator 16.0.0, SVG Export Plug-In . SVG Version: 6.00 Build 0)  -->
<!DOCTYPE svg PUBLIC "-//W3C//DTD SVG 1.1//EN" "http://www.w3.org/Graphics/SVG/1.1/DTD/svg11.dtd">
<svg version="1.1" id="Layer_1" xmlns="http://www.w3.org/2000/svg" xmlns:xlink="http://www.w3.org/1999/xlink" x="0px" y="0px"
	 width="93.478px" height="25.336px" viewBox="0 0 93.478 25.336" enable-background="new 0 0 93.478 25.336" xml:space="preserve">
<polygon fill="#80907F" points="-341.281,-268.507 -341.281,-264.507 -326.387,-264.507 -326.387,-247.171 -392.433,-247.171 
	-392.433,-257.673 -396.433,-257.673 -396.433,-243.171 -322.387,-243.171 -322.387,-268.507 "/>
<polygon fill="#80907F" points="-197.502,-169.889 -197.502,-165.889 -181.812,-165.889 -181.812,-148.553 -275.042,-148.553 
	-275.042,-159.055 -279.042,-159.055 -279.042,-144.553 -177.812,-144.553 -177.812,-169.889 "/>
<polygon fill="#80907F" points="73.004,0 73.004,4 89.478,4 89.478,21.336 4,21.336 4,10.833 0,10.833 0,25.336 93.478,25.336 
	93.478,0 "/>
<polygon fill="#80907F" points="-88.746,-101.144 -88.746,-97.144 -73.043,-97.144 -73.043,-79.808 -125.417,-79.808 
	-125.423,-79.808 -125.423,-90.31 -129.423,-90.31 -129.423,-75.808 -129.417,-75.814 -129.417,-75.808 -125.417,-75.808 
	-69.043,-75.808 -69.043,-101.144 "/>
</svg>
