<?xml version="1.0" encoding="utf-8"?>
<!-- Generator: Adobe Illustrator 16.0.0, SVG Export Plug-In . SVG Version: 6.00 Build 0)  -->
<!DOCTYPE svg PUBLIC "-//W3C//DTD SVG 1.1//EN" "http://www.w3.org/Graphics/SVG/1.1/DTD/svg11.dtd">
<svg version="1.1" id="Layer_1" xmlns="http://www.w3.org/2000/svg" xmlns:xlink="http://www.w3.org/1999/xlink" x="0px" y="0px"
	 width="101.23px" height="25.336px" viewBox="0 0 101.23 25.336" enable-background="new 0 0 101.23 25.336" xml:space="preserve">
<polygon fill="#80907F" points="-62.239,-98.618 -62.239,-94.618 -47.345,-94.618 -47.345,-77.282 -113.391,-77.282 
	-113.391,-87.784 -117.391,-87.784 -117.391,-73.282 -43.345,-73.282 -43.345,-98.618 "/>
<polygon fill="#80907F" points="81.54,0 81.54,4 97.23,4 97.23,21.336 4,21.336 4,10.834 0,10.834 0,25.336 101.23,25.336 101.23,0 
	"/>
<polygon fill="#80907F" points="352.046,169.889 352.046,173.889 368.52,173.889 368.52,191.225 283.042,191.225 283.042,180.723 
	279.042,180.723 279.042,195.225 372.52,195.225 372.52,169.889 "/>
<polygon fill="#80907F" points="190.296,68.746 190.296,72.746 205.999,72.746 205.999,90.082 153.625,90.082 153.619,90.082 
	153.619,79.58 149.619,79.58 149.619,94.082 149.625,94.075 149.625,94.082 153.625,94.082 209.999,94.082 209.999,68.746 "/>
</svg>
