<?xml version="1.0" encoding="utf-8"?>
<!-- Generator: Adobe Illustrator 16.0.0, SVG Export Plug-In . SVG Version: 6.00 Build 0)  -->
<!DOCTYPE svg PUBLIC "-//W3C//DTD SVG 1.1//EN" "http://www.w3.org/Graphics/SVG/1.1/DTD/svg11.dtd">
<svg version="1.1" id="Layer_1" xmlns="http://www.w3.org/2000/svg" xmlns:xlink="http://www.w3.org/1999/xlink" x="0px" y="0px"
	 width="927.677px" height="80.976px" viewBox="0 0 927.677 80.976" enable-background="new 0 0 927.677 80.976"
	 xml:space="preserve">
<g>
	<path fill="#FFFFFF" d="M35.466,21.857v2.79h-3.442V21.67c0-2.929-1.163-4.696-3.813-4.696c-2.604,0-3.814,1.768-3.814,4.696
		v17.208c0,2.93,1.209,4.697,3.814,4.697c2.65,0,3.813-1.767,3.813-4.697v-6.511h-3.349v-3.256h6.791v9.581
		c0,4.929-2.326,8.185-7.348,8.185c-4.977,0-7.302-3.256-7.302-8.185V21.857c0-4.93,2.326-8.185,7.302-8.185
		C33.141,13.672,35.466,16.927,35.466,21.857z"/>
	<path fill="#FFFFFF" d="M46.161,13.998c5.116,0,7.255,2.604,7.255,7.441v2.651c0,3.581-1.255,5.813-4.047,6.696
		c2.977,0.883,4.093,3.302,4.093,6.79v5.068c0,1.441,0.046,2.791,0.651,3.908h-3.674c-0.418-0.931-0.604-1.768-0.604-3.953v-5.116
		c0-3.674-1.721-4.837-4.744-4.837h-2.559v13.907h-3.627V13.998H46.161z M45.229,29.345c2.884,0,4.605-0.93,4.605-4.465v-3.115
		c0-2.93-1.07-4.465-3.767-4.465h-3.535v12.045H45.229z"/>
	<path fill="#FFFFFF" d="M60.902,39.995l-1.256,6.558h-3.349l6.232-32.555h5.255l6.232,32.555h-3.628l-1.255-6.558H60.902z
		 M61.366,36.879h7.256L64.947,18.09L61.366,36.879z"/>
	<path fill="#FFFFFF" d="M80.06,46.553h-3.255V13.998h4.604l7.534,23.532V13.998h3.209v32.555h-3.767L80.06,20.23V46.553z"/>
	<path fill="#FFFFFF" d="M103.498,13.998c5.069,0,7.395,3.069,7.395,8.092v16.417c0,4.976-2.325,8.046-7.395,8.046h-7.627V13.998
		H103.498z M103.452,43.25c2.603,0,3.86-1.628,3.86-4.604V21.903c0-2.977-1.257-4.604-3.906-4.604h-3.908V43.25H103.452z"/>
	<path fill="#FFFFFF" d="M121.213,21.857c0-4.976,2.465-8.185,7.441-8.185c5.023,0,7.488,3.208,7.488,8.185v16.835
		c0,4.929-2.465,8.185-7.488,8.185c-4.976,0-7.441-3.256-7.441-8.185V21.857z M124.794,38.878c0,2.977,1.256,4.697,3.86,4.697
		c2.651,0,3.86-1.721,3.86-4.697V21.67c0-2.929-1.209-4.696-3.86-4.696c-2.604,0-3.86,1.768-3.86,4.696V38.878z"/>
	<path fill="#FFFFFF" d="M146.697,13.998c5.115,0,7.302,3.022,7.302,7.952v3.907c0,5.163-2.418,7.86-7.581,7.86h-3.209v12.836
		h-3.627V13.998H146.697z M146.418,30.461c2.697,0,4-1.255,4-4.372v-4.325c0-2.977-1.07-4.465-3.721-4.465h-3.488v13.162H146.418z"
		/>
	<path fill="#FFFFFF" d="M168.553,28.415v3.255H160.6V43.25h9.767v3.303h-13.394V13.998h13.394v3.301H160.6v11.115H168.553z"/>
	<path fill="#FFFFFF" d="M176.922,46.553h-3.256V13.998h4.604l7.534,23.532V13.998h3.208v32.555h-3.767l-8.324-26.323V46.553z"/>
	<path fill="#FFFFFF" d="M196.361,13.998v32.555h-3.627V13.998H196.361z"/>
	<path fill="#FFFFFF" d="M203.289,46.553h-3.255V13.998h4.605l7.533,23.532V13.998h3.209v32.555h-3.768l-8.325-26.323V46.553z"/>
	<path fill="#FFFFFF" d="M233.47,21.857v2.79h-3.442V21.67c0-2.929-1.162-4.696-3.813-4.696c-2.604,0-3.814,1.768-3.814,4.696
		v17.208c0,2.93,1.209,4.697,3.814,4.697c2.651,0,3.813-1.767,3.813-4.697v-6.511h-3.348v-3.256h6.79v9.581
		c0,4.929-2.326,8.185-7.348,8.185c-4.977,0-7.301-3.256-7.301-8.185V21.857c0-4.93,2.325-8.185,7.301-8.185
		C231.144,13.672,233.47,16.927,233.47,21.857z"/>
</g>
<g>
	<path fill="#FFFFFF" d="M78.2,57.351c-0.181-0.25-0.382-0.441-0.6-0.575c-0.219-0.132-0.46-0.234-0.721-0.308
		c-0.261-0.068-0.522-0.105-0.783-0.105c-0.432,0-0.808,0.05-1.132,0.149c-0.323,0.1-0.592,0.233-0.804,0.403
		c-0.213,0.171-0.375,0.371-0.482,0.599c-0.108,0.227-0.161,0.465-0.161,0.714c0,0.375,0.066,0.676,0.201,0.907
		c0.132,0.229,0.301,0.414,0.505,0.552c0.204,0.141,0.431,0.251,0.677,0.328c0.248,0.082,0.484,0.161,0.711,0.238l1.72,0.564
		c0.517,0.164,0.973,0.351,1.366,0.561c0.396,0.211,0.725,0.458,0.993,0.744c0.265,0.288,0.469,0.618,0.608,0.991
		c0.14,0.375,0.21,0.812,0.21,1.305c0,0.533-0.11,1.028-0.33,1.481c-0.217,0.454-0.522,0.849-0.916,1.185
		c-0.39,0.335-0.857,0.596-1.4,0.787c-0.541,0.189-1.135,0.283-1.782,0.283c-0.666,0-1.234-0.073-1.703-0.226
		c-0.473-0.148-0.869-0.351-1.188-0.603c-0.321-0.253-0.579-0.541-0.772-0.865c-0.193-0.323-0.342-0.656-0.45-0.997H71.32V64h2.146
		c0,0.632,0.066,1.076,0.201,1.337c0.132,0.262,0.318,0.479,0.557,0.65c0.238,0.176,0.522,0.306,0.851,0.393
		c0.33,0.089,0.692,0.133,1.09,0.133c0.385,0,0.734-0.045,1.044-0.137c0.309-0.09,0.574-0.223,0.791-0.395
		c0.219-0.175,0.386-0.385,0.503-0.631c0.116-0.248,0.174-0.526,0.174-0.84c0-0.345-0.072-0.64-0.217-0.88
		c-0.144-0.243-0.332-0.448-0.558-0.619c-0.227-0.17-0.475-0.309-0.744-0.416c-0.271-0.107-0.53-0.2-0.779-0.28l-1.864-0.529
		c-0.409-0.123-0.784-0.282-1.121-0.478c-0.338-0.19-0.628-0.428-0.869-0.706c-0.242-0.277-0.428-0.603-0.558-0.974
		c-0.131-0.373-0.197-0.802-0.197-1.291c0-0.493,0.097-0.955,0.292-1.389c0.191-0.43,0.477-0.809,0.851-1.132
		c0.375-0.323,0.833-0.576,1.374-0.762c0.543-0.185,1.162-0.277,1.862-0.277c0.458,0,0.884,0.056,1.271,0.162
		c0.39,0.108,0.742,0.261,1.056,0.456c0.316,0.196,0.594,0.431,0.834,0.707c0.242,0.274,0.444,0.577,0.609,0.906h0.637v1.465h-2.085
		C78.473,57.975,78.382,57.6,78.2,57.351z"/>
	<path fill="#FFFFFF" d="M83.292,63.669c0,0.249,0.02,0.479,0.055,0.685c0.038,0.208,0.089,0.404,0.157,0.593
		c0.21,0.567,0.547,0.995,1.011,1.28c0.461,0.287,0.986,0.429,1.57,0.429c0.459,0,0.906-0.062,1.341-0.19
		c0.434-0.126,0.889-0.327,1.366-0.599l0.638,1.081c-0.579,0.397-1.16,0.693-1.745,0.887c-0.584,0.19-1.192,0.287-1.822,0.287
		c-0.595,0-1.148-0.1-1.656-0.297c-0.509-0.198-0.946-0.494-1.311-0.887c-0.367-0.391-0.652-0.88-0.86-1.464
		c-0.207-0.584-0.311-1.266-0.311-2.043c0-0.631,0.087-1.225,0.265-1.785c0.174-0.558,0.437-1.046,0.787-1.464
		c0.349-0.417,0.782-0.748,1.298-0.991c0.517-0.244,1.119-0.367,1.806-0.367c0.664,0,1.218,0.102,1.665,0.302
		c0.444,0.203,0.808,0.469,1.09,0.801c0.28,0.334,0.494,0.711,0.637,1.137c0.146,0.427,0.247,0.859,0.303,1.303
		c0.029,0.217,0.048,0.435,0.055,0.655c0.01,0.222,0.013,0.438,0.013,0.648H83.292z M85.771,60.15c-0.371,0-0.692,0.054-0.966,0.159
		c-0.276,0.104-0.511,0.256-0.703,0.45c-0.195,0.196-0.348,0.438-0.465,0.72c-0.115,0.285-0.203,0.604-0.26,0.953h4.574
		c-0.025-0.327-0.076-0.632-0.159-0.91c-0.082-0.277-0.208-0.52-0.378-0.724c-0.17-0.206-0.39-0.362-0.654-0.478
		C86.49,60.209,86.161,60.15,85.771,60.15z"/>
	<path fill="#FFFFFF" d="M91.449,59.054h2.808v0.732c0.375-0.29,0.783-0.521,1.227-0.691c0.442-0.17,0.9-0.253,1.372-0.253
		c0.579,0,1.109,0.107,1.591,0.321c0.482,0.218,0.898,0.52,1.249,0.912c0.348,0.393,0.619,0.861,0.813,1.41
		c0.191,0.547,0.288,1.152,0.288,1.817c0,0.711-0.108,1.357-0.322,1.941c-0.217,0.585-0.516,1.084-0.898,1.503
		c-0.384,0.416-0.838,0.742-1.368,0.974c-0.526,0.233-1.105,0.352-1.737,0.352c-0.448,0-0.845-0.048-1.196-0.144
		c-0.348-0.091-0.683-0.213-0.999-0.36v2.854h1.378v1.464h-4.189v-1.464h1.21v-9.904h-1.226V59.054z M96.437,60.238
		c-0.409,0-0.8,0.081-1.179,0.246c-0.377,0.164-0.706,0.392-0.982,0.682v4.775c0.186,0.194,0.455,0.367,0.804,0.52
		c0.349,0.153,0.784,0.229,1.308,0.229c0.361,0,0.711-0.07,1.046-0.212c0.335-0.143,0.63-0.354,0.886-0.634
		c0.255-0.282,0.459-0.628,0.613-1.043c0.153-0.415,0.229-0.895,0.229-1.44c0-0.499-0.072-0.942-0.215-1.328
		c-0.146-0.385-0.341-0.711-0.588-0.978c-0.247-0.268-0.536-0.472-0.865-0.609C97.164,60.306,96.812,60.238,96.437,60.238z"/>
	<path fill="#FFFFFF" d="M104.988,59.054h2.07v1.286h-2.087l-0.024,5.09c0,0.349,0.038,0.628,0.117,0.845
		c0.08,0.216,0.208,0.365,0.384,0.446c0.176,0.083,0.375,0.124,0.596,0.124c0.239,0,0.449-0.022,0.63-0.063
		c0.181-0.044,0.38-0.115,0.596-0.217l0.367,1.063c-0.272,0.144-0.56,0.255-0.861,0.336c-0.301,0.083-0.656,0.123-1.065,0.123
		c-0.386,0-0.721-0.045-1.009-0.141c-0.285-0.093-0.527-0.249-0.722-0.473c-0.197-0.219-0.342-0.516-0.439-0.89
		c-0.097-0.371-0.146-0.835-0.146-1.393l0.026-4.852h-1.404v-1.286h1.421v-2.112l1.55-0.731V59.054z"/>
	<path fill="#FFFFFF" d="M110.42,63.669c0,0.249,0.019,0.479,0.055,0.685c0.038,0.208,0.088,0.404,0.157,0.593
		c0.21,0.567,0.547,0.995,1.01,1.28c0.462,0.287,0.986,0.429,1.57,0.429c0.46,0,0.907-0.062,1.342-0.19
		c0.433-0.126,0.889-0.327,1.366-0.599l0.638,1.081c-0.579,0.397-1.16,0.693-1.745,0.887c-0.584,0.19-1.192,0.287-1.822,0.287
		c-0.596,0-1.148-0.1-1.656-0.297c-0.509-0.198-0.946-0.494-1.311-0.887c-0.367-0.391-0.653-0.88-0.861-1.464
		c-0.207-0.584-0.311-1.266-0.311-2.043c0-0.631,0.087-1.225,0.265-1.785c0.174-0.558,0.437-1.046,0.787-1.464
		c0.348-0.417,0.782-0.748,1.298-0.991c0.517-0.244,1.118-0.367,1.805-0.367c0.664,0,1.219,0.102,1.665,0.302
		c0.445,0.203,0.808,0.469,1.09,0.801c0.28,0.334,0.494,0.711,0.638,1.137c0.146,0.427,0.246,0.859,0.303,1.303
		c0.028,0.217,0.048,0.435,0.055,0.655c0.009,0.222,0.014,0.438,0.014,0.648H110.42z M112.899,60.15
		c-0.371,0-0.692,0.054-0.967,0.159c-0.276,0.104-0.511,0.256-0.702,0.45c-0.195,0.196-0.348,0.438-0.465,0.72
		c-0.115,0.285-0.203,0.604-0.259,0.953h4.573c-0.024-0.327-0.075-0.632-0.159-0.91c-0.081-0.277-0.208-0.52-0.378-0.724
		c-0.17-0.206-0.39-0.362-0.655-0.478C113.618,60.209,113.289,60.15,112.899,60.15z"/>
	<path fill="#FFFFFF" d="M118.928,59.054h2.81v1.029h0.018c0.192-0.163,0.396-0.318,0.609-0.464
		c0.212-0.145,0.435-0.271,0.668-0.379c0.232-0.107,0.474-0.192,0.728-0.254c0.252-0.064,0.515-0.096,0.787-0.096
		c0.636,0,1.185,0.119,1.643,0.354c0.461,0.237,0.815,0.604,1.065,1.104c0.215-0.193,0.442-0.379,0.681-0.559
		c0.238-0.178,0.486-0.333,0.745-0.463c0.258-0.131,0.528-0.234,0.812-0.313c0.284-0.08,0.579-0.122,0.886-0.122
		c0.477,0,0.907,0.066,1.287,0.197c0.38,0.13,0.704,0.329,0.97,0.595c0.267,0.268,0.469,0.609,0.61,1.026
		c0.138,0.418,0.208,0.91,0.208,1.479v4.223h1.226v1.465h-4.121V66.41h1.244v-4.026c0-0.676-0.17-1.188-0.511-1.539
		c-0.341-0.347-0.833-0.523-1.472-0.523c-0.382,0-0.771,0.093-1.167,0.271c-0.397,0.185-0.738,0.414-1.022,0.692v5.125h1.217v1.465
		h-4.112V66.41h1.243v-4.026c0-0.676-0.172-1.188-0.515-1.539c-0.344-0.347-0.836-0.523-1.478-0.523
		c-0.369,0-0.74,0.089-1.114,0.266c-0.375,0.175-0.731,0.395-1.065,0.654v5.169h1.243v1.465h-4.121V66.41h1.226v-5.893h-1.226
		V59.054z"/>
	<path fill="#FFFFFF" d="M136.014,54.626h2.861v5.16c0.375-0.29,0.783-0.521,1.227-0.691c0.442-0.17,0.9-0.253,1.372-0.253
		c0.579,0,1.109,0.107,1.591,0.321c0.482,0.218,0.898,0.52,1.249,0.912c0.348,0.393,0.619,0.861,0.813,1.41
		c0.191,0.547,0.288,1.152,0.288,1.817c0,0.711-0.108,1.352-0.322,1.929c-0.217,0.575-0.516,1.07-0.898,1.485
		c-0.384,0.415-0.838,0.734-1.368,0.958c-0.526,0.225-1.105,0.336-1.737,0.336c-0.437,0-0.846-0.064-1.23-0.19
		c-0.382-0.129-0.711-0.294-0.984-0.498v0.553h-1.582V56.091h-1.279V54.626z M141.055,60.238c-0.415,0-0.812,0.083-1.192,0.253
		c-0.38,0.171-0.709,0.401-0.988,0.69v4.744c0.182,0.186,0.449,0.353,0.802,0.498c0.35,0.143,0.792,0.217,1.329,0.217
		c0.361,0,0.711-0.067,1.046-0.204c0.335-0.136,0.63-0.343,0.886-0.618c0.255-0.274,0.459-0.618,0.613-1.025
		c0.153-0.408,0.229-0.886,0.229-1.432c0-0.499-0.072-0.942-0.215-1.328c-0.146-0.385-0.34-0.711-0.588-0.978
		c-0.247-0.268-0.536-0.472-0.865-0.609C141.782,60.306,141.429,60.238,141.055,60.238z"/>
	<path fill="#FFFFFF" d="M148.55,63.669c0,0.249,0.019,0.479,0.055,0.685c0.038,0.208,0.089,0.404,0.157,0.593
		c0.21,0.567,0.546,0.995,1.01,1.28c0.462,0.287,0.986,0.429,1.57,0.429c0.46,0,0.906-0.062,1.342-0.19
		c0.433-0.126,0.89-0.327,1.366-0.599l0.638,1.081c-0.579,0.397-1.16,0.693-1.744,0.887c-0.585,0.19-1.193,0.287-1.823,0.287
		c-0.596,0-1.148-0.1-1.656-0.297c-0.509-0.198-0.946-0.494-1.311-0.887c-0.367-0.391-0.653-0.88-0.861-1.464
		c-0.206-0.584-0.311-1.266-0.311-2.043c0-0.631,0.087-1.225,0.265-1.785c0.174-0.558,0.438-1.046,0.787-1.464
		c0.349-0.417,0.782-0.748,1.298-0.991c0.517-0.244,1.118-0.367,1.805-0.367c0.664,0,1.218,0.102,1.665,0.302
		c0.445,0.203,0.808,0.469,1.09,0.801c0.28,0.334,0.494,0.711,0.638,1.137c0.146,0.427,0.246,0.859,0.303,1.303
		c0.028,0.217,0.047,0.435,0.054,0.655c0.01,0.222,0.013,0.438,0.013,0.648H148.55z M151.028,60.15
		c-0.371,0-0.692,0.054-0.967,0.159c-0.276,0.104-0.511,0.256-0.702,0.45c-0.195,0.196-0.348,0.438-0.465,0.72
		c-0.115,0.285-0.203,0.604-0.259,0.953h4.573c-0.024-0.327-0.076-0.632-0.159-0.91c-0.081-0.277-0.208-0.52-0.378-0.724
		c-0.17-0.206-0.39-0.362-0.655-0.478C151.748,60.209,151.418,60.15,151.028,60.15z"/>
	<path fill="#FFFFFF" d="M163.397,60.919h-1.616v-0.544c-0.189,0-0.38,0.033-0.575,0.105c-0.197,0.069-0.378,0.178-0.549,0.323
		c-0.17,0.144-0.32,0.329-0.448,0.553c-0.127,0.226-0.22,0.49-0.276,0.797v4.257h1.499v1.465h-4.377V66.41h1.219l0.007-5.893h-1.227
		v-1.464h2.82v1.219c0.102-0.183,0.215-0.353,0.344-0.508c0.127-0.157,0.269-0.292,0.426-0.409c0.155-0.116,0.329-0.208,0.519-0.271
		c0.19-0.066,0.395-0.098,0.618-0.098c0.293,0,0.572,0,0.833,0c0.261,0,0.522,0.005,0.783,0.016V60.919z"/>
	<path fill="#FFFFFF" d="M168.942,66.622l4.538-5.482c0.155-0.181,0.314-0.378,0.482-0.588c0.167-0.21,0.323-0.432,0.467-0.663
		c0.146-0.233,0.265-0.477,0.357-0.729c0.095-0.251,0.142-0.514,0.142-0.787c0-0.283-0.059-0.551-0.17-0.8
		c-0.115-0.251-0.271-0.468-0.469-0.657c-0.199-0.186-0.435-0.333-0.711-0.442c-0.274-0.106-0.577-0.161-0.906-0.161
		c-0.295,0-0.575,0.048-0.838,0.141c-0.265,0.094-0.496,0.232-0.694,0.414c-0.199,0.181-0.36,0.406-0.481,0.676
		c-0.123,0.27-0.189,0.58-0.2,0.933h-1.533c0.006-0.539,0.112-1.036,0.316-1.495c0.205-0.456,0.477-0.852,0.821-1.184
		c0.343-0.332,0.742-0.589,1.196-0.774c0.454-0.184,0.931-0.276,1.431-0.276c0.579,0,1.103,0.093,1.574,0.276
		c0.471,0.186,0.874,0.438,1.211,0.762c0.333,0.324,0.594,0.709,0.777,1.151c0.186,0.442,0.278,0.921,0.278,1.438
		c0,0.204-0.024,0.422-0.074,0.651c-0.047,0.23-0.13,0.477-0.246,0.741c-0.117,0.263-0.271,0.548-0.46,0.849
		c-0.191,0.301-0.432,0.624-0.719,0.969l-4.028,4.794h5.508v1.499h-7.569V66.622z"/>
	<path fill="#FFFFFF" d="M178.308,66.622l4.537-5.482c0.155-0.181,0.314-0.378,0.483-0.588c0.166-0.21,0.323-0.432,0.467-0.663
		c0.146-0.233,0.265-0.477,0.358-0.729c0.094-0.251,0.142-0.514,0.142-0.787c0-0.283-0.059-0.551-0.17-0.8
		c-0.115-0.251-0.271-0.468-0.469-0.657c-0.199-0.186-0.436-0.333-0.711-0.442c-0.274-0.106-0.577-0.161-0.907-0.161
		c-0.295,0-0.575,0.048-0.838,0.141c-0.265,0.094-0.496,0.232-0.695,0.414c-0.198,0.181-0.359,0.406-0.48,0.676
		c-0.124,0.27-0.189,0.58-0.201,0.933h-1.533c0.006-0.539,0.112-1.036,0.316-1.495c0.204-0.456,0.477-0.852,0.822-1.184
		c0.342-0.332,0.741-0.589,1.195-0.774c0.455-0.184,0.932-0.276,1.431-0.276c0.578,0,1.103,0.093,1.574,0.276
		c0.471,0.186,0.874,0.438,1.21,0.762c0.333,0.324,0.594,0.709,0.778,1.151c0.186,0.442,0.278,0.921,0.278,1.438
		c0,0.204-0.025,0.422-0.074,0.651c-0.048,0.23-0.13,0.477-0.247,0.741c-0.117,0.263-0.27,0.548-0.459,0.849
		c-0.191,0.301-0.432,0.624-0.719,0.969l-4.028,4.794h5.508v1.499h-7.568V66.622z"/>
</g>
<g>
	<path fill="#FFFFFF" d="M300.694,64.52v-8.225c-1.686-0.273-3.019-0.791-3.999-1.56c-0.979-0.764-1.749-1.667-2.311-2.706h-3.04
		v-4.393h6.411v0.279l0.051-0.026c0,1.381,0.477,2.432,1.43,3.156c0.954,0.722,2.368,1.087,4.241,1.087
		c1.703,0,3.053-0.334,4.048-0.998c0.998-0.664,1.496-1.61,1.496-2.836c0-0.629-0.167-1.156-0.498-1.582
		c-0.333-0.427-0.75-0.78-1.252-1.062s-1.06-0.506-1.673-0.676c-0.613-0.171-1.201-0.333-1.763-0.486l-4.496-1.202
		c-0.97-0.253-1.864-0.589-2.682-1.008c-0.818-0.417-1.52-0.933-2.108-1.546c-0.587-0.613-1.042-1.336-1.366-2.17
		s-0.485-1.805-0.485-2.912c0-0.988,0.179-1.903,0.537-2.746c0.358-0.844,0.876-1.587,1.558-2.235
		c0.681-0.646,1.52-1.185,2.516-1.61c0.997-0.426,2.125-0.732,3.385-0.92v-8.71h5.032v8.735c1.448,0.257,2.699,0.715,3.755,1.381
		c1.055,0.662,1.907,1.455,2.554,2.375h2.58v4.394h-5.339l-0.587,0.077v-0.077h-0.051v-0.562c-0.17-1.107-0.723-2-1.66-2.683
		c-0.936-0.68-2.18-1.022-3.729-1.022c-1.856,0-3.27,0.303-4.24,0.908c-0.971,0.604-1.456,1.435-1.456,2.491
		c0,0.715,0.157,1.287,0.472,1.71c0.315,0.428,0.711,0.772,1.188,1.035c0.477,0.265,1,0.47,1.57,0.613
		c0.57,0.146,1.12,0.293,1.647,0.449l4.445,1.353c1.124,0.34,2.133,0.728,3.027,1.161c0.893,0.435,1.647,0.943,2.26,1.519
		c0.613,0.582,1.085,1.257,1.418,2.033c0.332,0.773,0.498,1.682,0.498,2.721c0,1.056-0.2,2.037-0.6,2.949
		c-0.401,0.91-0.966,1.724-1.699,2.439c-0.732,0.716-1.614,1.321-2.643,1.813c-1.032,0.496-2.168,0.845-3.411,1.049v8.225H300.694z"
		/>
	<path fill="#FFFFFF" d="M324.604,55.375h3.754v-28.33l-7.842,4.267v-5.338l10.78-6.028h2.044v35.429h3.806v4.395h-12.542V55.375z"
		/>
	<path fill="#FFFFFF" d="M348.436,36.932c0.954-0.647,1.934-1.138,2.938-1.468c1.005-0.333,2.154-0.498,3.448-0.498
		c1.908,0,3.662,0.34,5.262,1.022c1.601,0.681,2.976,1.601,4.126,2.758c1.148,1.158,2.043,2.508,2.681,4.048
		c0.64,1.542,0.958,3.173,0.958,4.892c0,1.737-0.315,3.384-0.945,4.943c-0.63,1.558-1.524,2.924-2.682,4.101
		c-1.158,1.174-2.551,2.106-4.177,2.797c-1.626,0.689-3.435,1.034-5.428,1.034c-1.516,0-2.929-0.199-4.241-0.601
		c-1.311-0.399-2.495-0.961-3.551-1.686c-1.055-0.724-1.972-1.588-2.746-2.594c-0.775-1.004-1.393-2.102-1.852-3.295l4.189-2.093
		c0.272,0.867,0.673,1.673,1.201,2.412c0.527,0.742,1.149,1.379,1.864,1.917c0.716,0.535,1.507,0.953,2.376,1.251
		c0.868,0.298,1.788,0.448,2.759,0.448c1.226,0,2.362-0.227,3.411-0.678c1.046-0.451,1.958-1.069,2.732-1.853
		c0.775-0.782,1.384-1.698,1.828-2.745c0.442-1.048,0.664-2.167,0.664-3.36c0-1.207-0.221-2.328-0.664-3.359
		c-0.443-1.029-1.056-1.924-1.839-2.681c-0.784-0.759-1.699-1.355-2.747-1.788c-1.046-0.436-2.175-0.653-3.384-0.653
		c-1.363,0-2.618,0.244-3.769,0.728c-1.148,0.486-2.107,1.138-2.873,1.955l-3.755-0.586V21.043h21.814v4.24h-17.6V36.932z"/>
</g>
<g>
	<path fill="#FFFFFF" d="M395.299,60.579c-1.585,0-3.033-0.296-4.344-0.886c-1.313-0.591-2.483-1.431-3.512-2.521
		s-1.812-2.382-2.346-3.876c-0.536-1.492-0.803-3.042-0.803-4.646c0-1.655,0.27-3.21,0.81-4.662
		c0.539-1.453,1.296-2.718,2.271-3.792c0.974-1.075,2.135-1.922,3.481-2.543c1.348-0.621,2.828-0.931,4.443-0.931
		c1.625,0,3.113,0.31,4.465,0.931c1.352,0.621,2.513,1.468,3.482,2.543c0.969,1.075,1.72,2.339,2.255,3.792
		c0.535,1.452,0.802,3.007,0.802,4.662c0,1.656-0.271,3.208-0.81,4.654c-0.54,1.447-1.297,2.712-2.271,3.792
		c-0.974,1.081-2.134,1.931-3.481,2.551C398.395,60.269,396.913,60.579,395.299,60.579z M395.299,57.763
		c1.201,0,2.288-0.248,3.262-0.742c0.974-0.492,1.803-1.158,2.491-1.99c0.686-0.832,1.215-1.799,1.589-2.897
		c0.372-1.101,0.56-2.263,0.56-3.482c0-1.251-0.204-2.46-0.613-3.626c-0.409-1.165-0.979-2.15-1.71-2.959
		c-0.732-0.808-1.582-1.43-2.551-1.87c-0.968-0.438-1.978-0.659-3.027-0.659c-1.202,0-2.292,0.248-3.27,0.742
		c-0.979,0.494-1.812,1.158-2.498,1.99c-0.687,0.832-1.216,1.801-1.589,2.906c-0.374,1.105-0.56,2.263-0.56,3.475
		c0,1.413,0.206,2.671,0.621,3.776c0.414,1.105,0.961,2.023,1.642,2.755c0.682,0.732,1.493,1.347,2.438,1.839
		C393.025,57.515,394.097,57.763,395.299,57.763z"/>
	<path fill="#FFFFFF" d="M414.069,44.441h3.633v2.286h-3.633v10.793h2.453v2.604h-7.629v-2.604h2.362V46.728h-2.589v-2.286h2.589
		V41.99c0.02-0.909,0.151-1.702,0.394-2.377c0.242-0.675,0.584-1.241,1.029-1.695c0.444-0.455,0.979-0.793,1.604-1.014
		c0.625-0.222,1.322-0.333,2.089-0.333c0.535,0,1.014,0.024,1.438,0.076c0.424,0.052,0.802,0.119,1.135,0.205
		c0.333,0.085,0.628,0.18,0.886,0.28c0.257,0.1,0.486,0.202,0.688,0.302l-0.863,2.014c-0.323-0.172-0.745-0.318-1.264-0.439
		c-0.52-0.121-1.062-0.182-1.627-0.182c-0.838,0-1.497,0.26-1.975,0.78c-0.48,0.52-0.72,1.285-0.72,2.293V44.441z"/>
	<path fill="#FFFFFF" d="M425.347,44.441h3.633v2.286h-3.633v10.793h2.452v2.604h-7.629v-2.604h2.361V46.728h-2.588v-2.286h2.588
		V41.99c0.02-0.909,0.151-1.702,0.394-2.377c0.243-0.675,0.584-1.241,1.03-1.695c0.443-0.455,0.978-0.793,1.604-1.014
		c0.625-0.222,1.322-0.333,2.089-0.333c0.535,0,1.014,0.024,1.438,0.076c0.424,0.052,0.803,0.119,1.135,0.205
		c0.333,0.085,0.628,0.18,0.886,0.28c0.257,0.1,0.486,0.202,0.688,0.302l-0.863,2.014c-0.323-0.172-0.745-0.318-1.264-0.439
		c-0.52-0.121-1.062-0.182-1.627-0.182c-0.838,0-1.497,0.26-1.975,0.78c-0.48,0.52-0.719,1.285-0.719,2.293V44.441z"/>
</g>
<g>
	<g>
		<path fill="#FFFFFF" d="M460.943,63.735v-8.228c-1.686-0.273-3.019-0.791-3.999-1.558c-0.978-0.767-1.75-1.669-2.31-2.708h-3.041
			V46.85h6.412v0.279l0.049-0.025c0,1.38,0.477,2.432,1.431,3.155c0.953,0.725,2.366,1.087,4.241,1.087
			c1.702,0,3.053-0.334,4.048-0.997c0.997-0.665,1.495-1.609,1.495-2.836c0-0.63-0.167-1.157-0.498-1.583
			c-0.333-0.427-0.75-0.78-1.252-1.061c-0.501-0.279-1.06-0.507-1.673-0.677c-0.613-0.171-1.2-0.333-1.764-0.485l-4.496-1.2
			c-0.968-0.256-1.863-0.593-2.681-1.01c-0.817-0.417-1.519-0.932-2.107-1.545c-0.587-0.614-1.043-1.337-1.366-2.171
			c-0.324-0.834-0.486-1.805-0.486-2.913c0-0.987,0.179-1.903,0.537-2.746c0.357-0.843,0.876-1.588,1.559-2.235
			c0.679-0.647,1.519-1.183,2.515-1.609c0.997-0.425,2.125-0.732,3.385-0.919v-8.711h5.033v8.737
			c1.446,0.255,2.699,0.715,3.754,1.379c1.056,0.664,1.908,1.456,2.554,2.375h2.581v4.394h-5.339l-0.586,0.076v-0.076h-0.053v-0.562
			c-0.17-1.107-0.723-2.002-1.66-2.683c-0.937-0.681-2.18-1.021-3.729-1.021c-1.856,0-3.27,0.303-4.24,0.908
			c-0.971,0.604-1.455,1.434-1.455,2.49c0,0.715,0.157,1.286,0.471,1.711c0.316,0.426,0.711,0.771,1.188,1.034
			c0.477,0.265,1.001,0.469,1.571,0.613c0.571,0.146,1.121,0.294,1.648,0.448l4.445,1.354c1.124,0.34,2.132,0.728,3.027,1.162
			c0.893,0.435,1.648,0.941,2.261,1.521c0.613,0.579,1.085,1.256,1.417,2.03c0.332,0.775,0.499,1.682,0.499,2.721
			c0,1.056-0.202,2.039-0.601,2.952c-0.401,0.91-0.967,1.721-1.699,2.437s-1.614,1.321-2.644,1.814
			c-1.031,0.494-2.168,0.843-3.41,1.047v8.228H460.943z"/>
		<path fill="#FFFFFF" d="M483.319,54.588h2.989c0.92-2.622,1.934-5.283,3.039-7.981c1.108-2.697,2.232-5.326,3.372-7.881
			c1.143-2.554,2.266-4.985,3.371-7.293c1.109-2.306,2.123-4.389,3.043-6.245h-14.509v2.989h-4.904v-7.919h25.415v3.832
			c-1.123,2.214-2.302,4.561-3.527,7.037c-1.226,2.479-2.437,5.02-3.64,7.626c-1.201,2.605-2.361,5.244-3.486,7.918
			c-1.124,2.673-2.146,5.314-3.065,7.918h3.222v4.394h-11.319V54.588z"/>
		<path fill="#FFFFFF" d="M514.279,36.146c0.953-0.647,1.934-1.137,2.937-1.468c1.006-0.333,2.153-0.499,3.448-0.499
			c1.906,0,3.662,0.34,5.263,1.022c1.601,0.681,2.975,1.601,4.125,2.758c1.15,1.158,2.044,2.509,2.684,4.05
			c0.639,1.54,0.957,3.171,0.957,4.891c0,1.737-0.314,3.386-0.946,4.945c-0.628,1.555-1.525,2.924-2.683,4.098
			c-1.157,1.175-2.547,2.108-4.175,2.797c-1.627,0.689-3.437,1.035-5.431,1.035c-1.513,0-2.929-0.2-4.237-0.601
			c-1.313-0.4-2.494-0.961-3.55-1.687c-1.057-0.724-1.972-1.586-2.749-2.594c-0.774-1.001-1.391-2.102-1.85-3.294l4.188-2.094
			c0.273,0.868,0.671,1.673,1.201,2.415c0.525,0.74,1.15,1.376,1.865,1.914c0.715,0.537,1.506,0.953,2.372,1.253
			c0.871,0.299,1.79,0.446,2.759,0.446c1.228,0,2.365-0.226,3.414-0.678c1.045-0.45,1.957-1.067,2.732-1.851
			c0.776-0.783,1.382-1.699,1.824-2.747s0.665-2.167,0.665-3.359c0-1.208-0.223-2.329-0.665-3.357
			c-0.442-1.03-1.056-1.925-1.839-2.683c-0.783-0.758-1.696-1.354-2.745-1.788c-1.048-0.435-2.176-0.652-3.387-0.652
			c-1.362,0-2.614,0.243-3.765,0.728c-1.151,0.486-2.108,1.137-2.877,1.955l-3.754-0.588V20.257h21.816v4.241h-17.6V36.146z"/>
	</g>
</g>
<g>
	<path fill="#FFFFFF" d="M639.104,64.52v-8.225c-1.686-0.273-3.019-0.791-3.998-1.56c-0.98-0.764-1.749-1.667-2.313-2.706h-3.039
		v-4.393h6.41v0.279l0.054-0.026c0,1.381,0.477,2.432,1.431,3.156c0.954,0.722,2.365,1.087,4.237,1.087
		c1.704,0,3.055-0.334,4.05-0.998c0.998-0.664,1.495-1.61,1.495-2.836c0-0.629-0.166-1.156-0.497-1.582
		c-0.334-0.427-0.752-0.78-1.254-1.062c-0.501-0.281-1.059-0.506-1.672-0.676c-0.613-0.171-1.202-0.333-1.762-0.486l-4.496-1.202
		c-0.972-0.253-1.865-0.589-2.683-1.008c-0.817-0.417-1.521-0.933-2.108-1.546c-0.586-0.613-1.042-1.336-1.366-2.17
		c-0.323-0.834-0.483-1.805-0.483-2.912c0-0.988,0.177-1.903,0.535-2.746c0.357-0.844,0.876-1.587,1.557-2.235
		c0.682-0.646,1.521-1.185,2.517-1.61c0.998-0.426,2.125-0.732,3.386-0.92v-8.71h5.031v8.735c1.45,0.257,2.699,0.715,3.756,1.381
		c1.056,0.662,1.908,1.455,2.555,2.375h2.578v4.394h-5.337l-0.589,0.077v-0.077h-0.049v-0.562c-0.171-1.107-0.725-2-1.662-2.683
		c-0.937-0.68-2.18-1.022-3.729-1.022c-1.856,0-3.271,0.303-4.24,0.908c-0.972,0.604-1.458,1.435-1.458,2.491
		c0,0.715,0.159,1.287,0.474,1.71c0.313,0.428,0.711,0.772,1.188,1.035c0.477,0.265,0.999,0.47,1.57,0.613
		c0.571,0.146,1.119,0.293,1.648,0.449l4.444,1.353c1.124,0.34,2.132,0.728,3.027,1.161c0.894,0.435,1.646,0.943,2.26,1.519
		c0.612,0.582,1.085,1.257,1.419,2.033c0.331,0.773,0.497,1.682,0.497,2.721c0,1.056-0.2,2.037-0.599,2.949
		c-0.401,0.91-0.968,1.724-1.7,2.439c-0.731,0.716-1.614,1.321-2.644,1.813c-1.031,0.496-2.167,0.845-3.411,1.049v8.225H639.104z"/>
	<path fill="#FFFFFF" d="M659.08,56.015l13.616-16.451c0.458-0.545,0.938-1.133,1.441-1.763c0.503-0.63,0.971-1.294,1.406-1.993
		c0.433-0.698,0.791-1.426,1.073-2.183c0.279-0.759,0.42-1.546,0.42-2.363c0-0.852-0.171-1.652-0.512-2.402
		c-0.341-0.749-0.807-1.405-1.403-1.966c-0.597-0.563-1.308-1.004-2.132-1.328c-0.827-0.323-1.733-0.486-2.722-0.486
		c-0.886,0-1.725,0.141-2.517,0.422c-0.791,0.28-1.485,0.694-2.082,1.238c-0.596,0.546-1.076,1.222-1.442,2.032
		c-0.367,0.808-0.566,1.741-0.601,2.796h-4.599c0.018-1.618,0.332-3.113,0.945-4.482c0.612-1.373,1.434-2.555,2.465-3.552
		c1.032-0.995,2.228-1.771,3.59-2.323c1.361-0.555,2.793-0.831,4.292-0.831c1.737,0,3.312,0.276,4.727,0.831
		c1.411,0.552,2.622,1.315,3.625,2.286c1.006,0.971,1.784,2.12,2.339,3.447c0.553,1.329,0.828,2.769,0.828,4.318
		c0,0.613-0.071,1.264-0.216,1.955c-0.146,0.688-0.394,1.431-0.741,2.222c-0.348,0.792-0.811,1.641-1.379,2.541
		c-0.57,0.904-1.289,1.875-2.16,2.914l-12.081,14.381h16.528v4.496h-22.71V56.015z"/>
	<path fill="#FFFFFF" d="M693.029,36.932c0.954-0.647,1.933-1.138,2.937-1.468c1.005-0.333,2.153-0.498,3.448-0.498
		c1.907,0,3.662,0.34,5.264,1.022c1.602,0.681,2.975,1.601,4.125,2.758c1.148,1.158,2.044,2.508,2.682,4.048
		c0.639,1.542,0.959,3.173,0.959,4.892c0,1.737-0.316,3.384-0.945,4.943c-0.631,1.558-1.525,2.924-2.684,4.101
		c-1.158,1.174-2.551,2.106-4.177,2.797c-1.625,0.689-3.434,1.034-5.428,1.034c-1.515,0-2.93-0.199-4.239-0.601
		c-1.313-0.399-2.495-0.961-3.551-1.686c-1.057-0.724-1.972-1.588-2.746-2.594c-0.776-1.004-1.393-2.102-1.853-3.295l4.188-2.093
		c0.273,0.867,0.672,1.673,1.202,2.412c0.526,0.742,1.148,1.379,1.864,1.917c0.715,0.535,1.509,0.953,2.375,1.251
		c0.87,0.298,1.79,0.448,2.759,0.448c1.226,0,2.362-0.227,3.411-0.678c1.047-0.451,1.958-1.069,2.732-1.853
		c0.773-0.782,1.383-1.698,1.825-2.745c0.443-1.048,0.667-2.167,0.667-3.36c0-1.207-0.224-2.328-0.667-3.359
		c-0.442-1.029-1.056-1.924-1.839-2.681c-0.783-0.759-1.697-1.355-2.745-1.788c-1.046-0.436-2.174-0.653-3.385-0.653
		c-1.362,0-2.617,0.244-3.768,0.728c-1.148,0.486-2.106,1.138-2.874,1.955l-3.754-0.586V21.043h21.813v4.24h-17.599V36.932z"/>
</g>
<g>
	<path fill="#FFFFFF" d="M741.46,60.579c-1.584,0-3.033-0.296-4.344-0.886c-1.313-0.591-2.483-1.431-3.514-2.521
		c-1.027-1.09-1.81-2.382-2.345-3.876c-0.535-1.492-0.804-3.042-0.804-4.646c0-1.655,0.272-3.21,0.812-4.662
		c0.538-1.453,1.296-2.718,2.27-3.792c0.975-1.075,2.135-1.922,3.481-2.543c1.348-0.621,2.829-0.931,4.443-0.931
		c1.626,0,3.112,0.31,4.465,0.931c1.354,0.621,2.514,1.468,3.482,2.543s1.721,2.339,2.256,3.792
		c0.535,1.452,0.802,3.007,0.802,4.662c0,1.656-0.271,3.208-0.81,4.654c-0.539,1.447-1.296,2.712-2.271,3.792
		c-0.975,1.081-2.135,1.931-3.482,2.551C744.555,60.269,743.073,60.579,741.46,60.579z M741.46,57.763
		c1.201,0,2.288-0.248,3.262-0.742c0.975-0.492,1.804-1.158,2.49-1.99c0.688-0.832,1.217-1.799,1.59-2.897
		c0.373-1.101,0.56-2.263,0.56-3.482c0-1.251-0.204-2.46-0.612-3.626c-0.409-1.165-0.978-2.15-1.711-2.959
		c-0.732-0.808-1.582-1.43-2.551-1.87c-0.969-0.438-1.977-0.659-3.027-0.659c-1.201,0-2.291,0.248-3.27,0.742
		c-0.978,0.494-1.812,1.158-2.498,1.99c-0.686,0.832-1.216,1.801-1.59,2.906c-0.372,1.105-0.559,2.263-0.559,3.475
		c0,1.413,0.205,2.671,0.619,3.776c0.415,1.105,0.963,2.023,1.644,2.755c0.681,0.732,1.492,1.347,2.437,1.839
		C739.188,57.515,740.259,57.763,741.46,57.763z"/>
	<path fill="#FFFFFF" d="M760.231,44.441h3.632v2.286h-3.632v10.793h2.451v2.604h-7.629v-2.604h2.361V46.728h-2.589v-2.286h2.589
		V41.99c0.021-0.909,0.151-1.702,0.394-2.377c0.243-0.675,0.585-1.241,1.03-1.695c0.443-0.455,0.978-0.793,1.603-1.014
		c0.627-0.222,1.324-0.333,2.09-0.333c0.536,0,1.014,0.024,1.438,0.076c0.424,0.052,0.803,0.119,1.135,0.205
		c0.333,0.085,0.629,0.18,0.886,0.28c0.257,0.1,0.486,0.202,0.688,0.302l-0.862,2.014c-0.323-0.172-0.743-0.318-1.265-0.439
		c-0.521-0.121-1.061-0.182-1.627-0.182c-0.839,0-1.497,0.26-1.976,0.78s-0.718,1.285-0.718,2.293V44.441z"/>
	<path fill="#FFFFFF" d="M771.508,44.441h3.634v2.286h-3.634v10.793h2.453v2.604h-7.63v-2.604h2.361V46.728h-2.588v-2.286h2.588
		V41.99c0.021-0.909,0.152-1.702,0.393-2.377c0.243-0.675,0.586-1.241,1.03-1.695c0.445-0.455,0.978-0.793,1.604-1.014
		c0.627-0.222,1.322-0.333,2.09-0.333c0.535,0,1.014,0.024,1.438,0.076c0.424,0.052,0.802,0.119,1.136,0.205
		c0.333,0.085,0.628,0.18,0.886,0.28c0.257,0.1,0.485,0.202,0.688,0.302l-0.864,2.014c-0.323-0.172-0.743-0.318-1.263-0.439
		c-0.521-0.121-1.062-0.182-1.627-0.182c-0.839,0-1.497,0.26-1.976,0.78c-0.48,0.52-0.72,1.285-0.72,2.293V44.441z"/>
</g>
<g>
	<g>
		<path fill="#FFFFFF" d="M803.229,63.735v-8.228c-1.686-0.273-3.018-0.791-3.998-1.558c-0.978-0.767-1.751-1.669-2.312-2.708
			h-3.039V46.85h6.412v0.279l0.049-0.025c0,1.38,0.477,2.432,1.431,3.155c0.953,0.725,2.367,1.087,4.242,1.087
			c1.701,0,3.052-0.334,4.048-0.997c0.997-0.665,1.495-1.609,1.495-2.836c0-0.63-0.167-1.157-0.498-1.583
			c-0.333-0.427-0.749-0.78-1.253-1.061c-0.502-0.279-1.06-0.507-1.673-0.677c-0.612-0.171-1.199-0.333-1.763-0.485l-4.496-1.2
			c-0.969-0.256-1.864-0.593-2.682-1.01c-0.816-0.417-1.52-0.932-2.107-1.545c-0.587-0.614-1.043-1.337-1.366-2.171
			s-0.486-1.805-0.486-2.913c0-0.987,0.179-1.903,0.537-2.746c0.357-0.843,0.876-1.588,1.56-2.235
			c0.68-0.647,1.52-1.183,2.515-1.609c0.997-0.425,2.124-0.732,3.385-0.919v-8.711h5.034v8.737c1.445,0.255,2.697,0.715,3.754,1.379
			c1.055,0.664,1.906,1.456,2.553,2.375h2.582v4.394h-5.341l-0.585,0.076v-0.076h-0.054v-0.562
			c-0.171-1.107-0.724-2.002-1.659-2.683c-0.937-0.681-2.181-1.021-3.729-1.021c-1.856,0-3.27,0.303-4.24,0.908
			c-0.972,0.604-1.455,1.434-1.455,2.49c0,0.715,0.156,1.286,0.47,1.711c0.317,0.426,0.712,0.771,1.189,1.034
			c0.477,0.265,1.002,0.469,1.57,0.613c0.572,0.146,1.121,0.294,1.648,0.448l4.444,1.354c1.125,0.34,2.133,0.728,3.027,1.162
			c0.894,0.435,1.648,0.941,2.262,1.521c0.612,0.579,1.084,1.256,1.417,2.03c0.331,0.775,0.498,1.682,0.498,2.721
			c0,1.056-0.201,2.039-0.6,2.952c-0.402,0.91-0.968,1.721-1.699,2.437c-0.732,0.716-1.614,1.321-2.644,1.814
			c-1.031,0.494-2.169,0.843-3.409,1.047v8.228H803.229z"/>
		<path fill="#FFFFFF" d="M827.139,54.588h3.755V26.26l-7.843,4.266v-5.339l10.78-6.028h2.044v35.429h3.807v4.394h-12.543V54.588z"
			/>
		<path fill="#FFFFFF" d="M859.604,59.443c-2.759,0-5.065-0.511-6.922-1.532c-1.856-1.022-3.342-2.429-4.458-4.217
			c-1.114-1.787-1.91-3.882-2.388-6.283c-0.477-2.401-0.716-4.982-0.716-7.74c0-2.946,0.323-5.7,0.972-8.263
			c0.646-2.563,1.515-4.62,2.605-6.169c1.089-1.55,2.466-2.87,4.125-3.959c1.661-1.09,3.937-1.635,6.835-1.635
			c2.738,0,5.021,0.434,6.845,1.303c1.821,0.869,3.325,2.202,4.507,3.997c1.185,1.797,2.015,3.964,2.49,6.501
			c0.478,2.538,0.716,5.229,0.716,8.072c0,2.774-0.238,5.373-0.716,7.791c-0.476,2.419-1.28,4.525-2.412,6.321
			c-1.134,1.798-2.636,3.216-4.509,4.255C864.705,58.922,862.38,59.443,859.604,59.443z M859.604,54.894
			c1.994,0,3.6-0.402,4.815-1.211c1.218-0.81,2.138-1.912,2.759-3.309c0.622-1.396,1.086-3.025,1.394-4.891
			c0.306-1.866,0.46-3.854,0.46-5.966c0-2.026-0.12-3.972-0.358-5.837c-0.238-1.864-0.698-3.512-1.38-4.942
			c-0.681-1.431-1.635-2.571-2.86-3.423c-1.228-0.852-2.819-1.277-4.775-1.277c-2.029,0-3.63,0.426-4.804,1.277
			c-1.177,0.852-2.053,1.877-2.632,3.078c-0.579,1.2-1.035,2.849-1.366,4.943c-0.332,2.095-0.497,4.155-0.497,6.182
			c0,2.111,0.106,4.1,0.317,5.966c0.214,1.865,0.647,3.494,1.304,4.891c0.654,1.396,1.591,2.499,2.811,3.309
			C856.007,54.491,857.613,54.894,859.604,54.894z"/>
		<path fill="#FFFFFF" d="M893.578,59.443c-2.759,0-5.064-0.511-6.921-1.532c-1.856-1.022-3.342-2.429-4.458-4.217
			c-1.114-1.787-1.912-3.882-2.388-6.283c-0.478-2.401-0.716-4.982-0.716-7.74c0-2.946,0.323-5.7,0.97-8.263
			c0.648-2.563,1.517-4.62,2.607-6.169c1.089-1.55,2.464-2.87,4.125-3.959c1.66-1.09,3.937-1.635,6.833-1.635
			c2.74,0,5.022,0.434,6.847,1.303c1.819,0.869,3.325,2.202,4.507,3.997c1.185,1.797,2.013,3.964,2.49,6.501
			c0.477,2.538,0.716,5.229,0.716,8.072c0,2.774-0.239,5.373-0.716,7.791c-0.478,2.419-1.281,4.525-2.412,6.321
			c-1.134,1.798-2.637,3.216-4.509,4.255C898.68,58.922,896.354,59.443,893.578,59.443z M893.578,54.894
			c1.994,0,3.599-0.402,4.815-1.211c1.219-0.81,2.139-1.912,2.759-3.309c0.623-1.396,1.087-3.025,1.393-4.891
			c0.308-1.866,0.46-3.854,0.46-5.966c0-2.026-0.119-3.972-0.357-5.837c-0.237-1.864-0.697-3.512-1.379-4.942
			c-0.681-1.431-1.635-2.571-2.862-3.423c-1.226-0.852-2.818-1.277-4.775-1.277c-2.027,0-3.628,0.426-4.802,1.277
			c-1.177,0.852-2.053,1.877-2.632,3.078c-0.579,1.2-1.035,2.849-1.366,4.943c-0.333,2.095-0.498,4.155-0.498,6.182
			c0,2.111,0.105,4.1,0.317,5.966c0.215,1.865,0.648,3.494,1.304,4.891s1.592,2.499,2.811,3.309
			C889.981,54.491,891.588,54.894,893.578,54.894z"/>
	</g>
</g>
<line fill="none" stroke="#FFFFFF" stroke-miterlimit="10" x1="259.192" y1="11.201" x2="259.192" y2="73.003"/>
<g>
	<g>
		<path fill="#FFFFFF" d="M564.486,44.309c0.007-1.24,0.208-2.372,0.598-3.391c0.386-1.02,0.932-1.894,1.627-2.626
			c0.697-0.732,1.521-1.294,2.483-1.688c0.957-0.394,2.013-0.59,3.163-0.59c1.158,0,2.221,0.197,3.187,0.59
			c0.961,0.394,1.786,0.952,2.475,1.673c0.685,0.721,1.219,1.592,1.604,2.611c0.383,1.019,0.575,2.15,0.575,3.393
			c0,1.218-0.192,2.341-0.575,3.366c-0.386,1.022-0.92,1.904-1.604,2.643c-0.688,0.734-1.514,1.31-2.475,1.718
			c-0.966,0.409-2.028,0.613-3.187,0.613c-1.181,0-2.251-0.204-3.209-0.605c-0.961-0.405-1.782-0.973-2.468-1.703
			c-0.689-0.733-1.222-1.608-1.604-2.626C564.69,46.664,564.493,45.54,564.486,44.309z M567.468,44.309
			c0,0.897,0.129,1.711,0.386,2.438c0.258,0.727,0.609,1.343,1.06,1.854c0.447,0.508,0.969,0.901,1.56,1.181
			c0.59,0.277,1.218,0.417,1.885,0.417c0.697,0,1.344-0.137,1.945-0.408c0.598-0.273,1.12-0.667,1.566-1.175
			c0.442-0.51,0.791-1.127,1.045-1.854c0.249-0.727,0.378-1.544,0.378-2.453c0-0.948-0.129-1.792-0.378-2.528
			c-0.254-0.736-0.599-1.353-1.037-1.847c-0.438-0.494-0.961-0.869-1.566-1.12c-0.605-0.252-1.256-0.378-1.953-0.378
			c-0.667,0-1.295,0.126-1.885,0.378c-0.591,0.251-1.112,0.626-1.56,1.12c-0.45,0.494-0.802,1.11-1.06,1.847
			C567.597,42.517,567.468,43.36,567.468,44.309z"/>
		<path fill="#FFFFFF" d="M594.519,39.782h-2.876v-0.968c-0.333,0-0.674,0.062-1.021,0.188c-0.349,0.127-0.674,0.318-0.977,0.576
			c-0.304,0.257-0.568,0.584-0.795,0.984c-0.227,0.398-0.394,0.87-0.491,1.416v7.568h2.663v2.604h-7.779v-2.604h2.163l0.017-10.476
			h-2.18v-2.603h5.01v2.165c0.182-0.324,0.386-0.623,0.612-0.901c0.228-0.278,0.477-0.52,0.758-0.726
			c0.275-0.207,0.582-0.369,0.923-0.484c0.338-0.116,0.704-0.174,1.098-0.174c0.522,0,1.019,0,1.483,0
			c0.462,0,0.928,0.009,1.393,0.03V39.782z"/>
	</g>
	<line fill="none" stroke="#FFFFFF" stroke-miterlimit="10" x1="563.183" y1="26.981" x2="595.113" y2="26.981"/>
	<line fill="none" stroke="#FFFFFF" stroke-miterlimit="10" x1="563.183" y1="60.124" x2="595.113" y2="60.124"/>
</g>
</svg>
