<?xml version="1.0" encoding="utf-8"?>
<!-- Generator: Adobe Illustrator 16.0.0, SVG Export Plug-In . SVG Version: 6.00 Build 0)  -->
<!DOCTYPE svg PUBLIC "-//W3C//DTD SVG 1.1//EN" "http://www.w3.org/Graphics/SVG/1.1/DTD/svg11.dtd">
<svg version="1.1" id="Layer_1" xmlns="http://www.w3.org/2000/svg" xmlns:xlink="http://www.w3.org/1999/xlink" x="0px" y="0px"
	 width="495.987px" height="80.976px" viewBox="0 0 495.987 80.976" enable-background="new 0 0 495.987 80.976"
	 xml:space="preserve">
<g>
	<path fill="#FFFFFF" d="M37.608,20.565v2.79h-3.442v-2.977c0-2.929-1.163-4.696-3.813-4.696c-2.604,0-3.814,1.768-3.814,4.696
		v17.208c0,2.93,1.209,4.698,3.814,4.698c2.65,0,3.813-1.768,3.813-4.698v-6.511h-3.349V27.82h6.791v9.581
		c0,4.928-2.326,8.184-7.348,8.184c-4.977,0-7.302-3.256-7.302-8.184V20.565c0-4.93,2.326-8.185,7.302-8.185
		C35.283,12.381,37.608,15.635,37.608,20.565z"/>
	<path fill="#FFFFFF" d="M48.303,12.707c5.116,0,7.255,2.604,7.255,7.441v2.651c0,3.581-1.255,5.813-4.047,6.696
		c2.977,0.883,4.093,3.302,4.093,6.79v5.068c0,1.441,0.046,2.791,0.651,3.908h-3.674c-0.418-0.93-0.604-1.768-0.604-3.953v-5.116
		c0-3.674-1.721-4.837-4.744-4.837h-2.559v13.906h-3.627V12.707H48.303z M47.372,28.053c2.884,0,4.605-0.93,4.605-4.465v-3.115
		c0-2.93-1.07-4.465-3.767-4.465h-3.535v12.045H47.372z"/>
	<path fill="#FFFFFF" d="M63.044,38.703l-1.256,6.558h-3.349l6.232-32.554h5.255l6.232,32.554H72.53l-1.255-6.558H63.044z
		 M63.508,35.587h7.256l-3.675-18.789L63.508,35.587z"/>
	<path fill="#FFFFFF" d="M82.202,45.261h-3.255V12.707h4.604l7.534,23.532V12.707h3.209v32.554h-3.767l-8.325-26.322V45.261z"/>
	<path fill="#FFFFFF" d="M105.64,12.707c5.069,0,7.395,3.069,7.395,8.092v16.417c0,4.976-2.325,8.046-7.395,8.046h-7.627V12.707
		H105.64z M105.594,41.958c2.603,0,3.86-1.628,3.86-4.604V20.612c0-2.977-1.257-4.604-3.906-4.604h-3.908v25.951H105.594z"/>
	<path fill="#FFFFFF" d="M123.355,20.565c0-4.976,2.465-8.185,7.441-8.185c5.023,0,7.488,3.208,7.488,8.185v16.835
		c0,4.928-2.465,8.184-7.488,8.184c-4.976,0-7.441-3.256-7.441-8.184V20.565z M126.937,37.586c0,2.977,1.256,4.698,3.86,4.698
		c2.651,0,3.86-1.721,3.86-4.698V20.379c0-2.929-1.209-4.696-3.86-4.696c-2.604,0-3.86,1.768-3.86,4.696V37.586z"/>
	<path fill="#FFFFFF" d="M148.839,12.707c5.115,0,7.302,3.022,7.302,7.952v3.907c0,5.163-2.418,7.86-7.581,7.86h-3.209v12.836
		h-3.627V12.707H148.839z M148.561,29.169c2.697,0,4-1.255,4-4.372v-4.325c0-2.977-1.07-4.465-3.721-4.465h-3.488v13.162H148.561z"
		/>
	<path fill="#FFFFFF" d="M170.695,27.123v3.255h-7.953v11.581h9.767v3.302h-13.394V12.707h13.394v3.301h-9.767v11.115H170.695z"/>
	<path fill="#FFFFFF" d="M179.064,45.261h-3.256V12.707h4.604l7.534,23.532V12.707h3.208v32.554h-3.767l-8.324-26.322V45.261z"/>
	<path fill="#FFFFFF" d="M198.503,12.707v32.554h-3.627V12.707H198.503z"/>
	<path fill="#FFFFFF" d="M205.431,45.261h-3.255V12.707h4.605l7.533,23.532V12.707h3.209v32.554h-3.768l-8.325-26.322V45.261z"/>
	<path fill="#FFFFFF" d="M235.612,20.565v2.79h-3.442v-2.977c0-2.929-1.162-4.696-3.813-4.696c-2.605,0-3.814,1.768-3.814,4.696
		v17.208c0,2.93,1.209,4.698,3.814,4.698c2.65,0,3.813-1.768,3.813-4.698v-6.511h-3.348V27.82h6.79v9.581
		c0,4.928-2.325,8.184-7.349,8.184c-4.977,0-7.301-3.256-7.301-8.184V20.565c0-4.93,2.324-8.185,7.301-8.185
		C233.287,12.381,235.612,15.635,235.612,20.565z"/>
</g>
<g>
	<path fill="#FFFFFF" d="M80.342,56.06c-0.181-0.25-0.382-0.441-0.6-0.576c-0.219-0.131-0.46-0.234-0.721-0.307
		c-0.261-0.068-0.522-0.105-0.783-0.105c-0.432,0-0.808,0.049-1.132,0.148c-0.323,0.1-0.592,0.234-0.804,0.404
		c-0.213,0.17-0.375,0.371-0.482,0.598s-0.161,0.465-0.161,0.715c0,0.375,0.066,0.676,0.201,0.906
		c0.132,0.229,0.301,0.414,0.505,0.553c0.204,0.141,0.431,0.25,0.677,0.328c0.248,0.082,0.484,0.16,0.711,0.238l1.72,0.564
		c0.517,0.164,0.973,0.35,1.366,0.561c0.396,0.211,0.725,0.457,0.993,0.744c0.265,0.287,0.469,0.617,0.608,0.99
		c0.14,0.375,0.21,0.813,0.21,1.305c0,0.533-0.11,1.029-0.33,1.482c-0.217,0.453-0.522,0.848-0.916,1.184
		c-0.39,0.336-0.857,0.596-1.4,0.787c-0.541,0.189-1.135,0.283-1.782,0.283c-0.666,0-1.234-0.072-1.703-0.225
		c-0.473-0.148-0.869-0.352-1.188-0.604c-0.321-0.252-0.579-0.541-0.772-0.865c-0.193-0.322-0.342-0.656-0.45-0.996h-0.647v-1.465
		h2.146c0,0.633,0.066,1.076,0.201,1.338c0.132,0.262,0.318,0.479,0.557,0.65c0.238,0.176,0.522,0.305,0.851,0.393
		c0.33,0.088,0.692,0.133,1.09,0.133c0.385,0,0.734-0.045,1.044-0.137c0.309-0.09,0.574-0.223,0.791-0.395
		c0.219-0.176,0.386-0.385,0.503-0.631c0.116-0.248,0.174-0.527,0.174-0.84c0-0.346-0.072-0.641-0.217-0.881
		c-0.144-0.242-0.332-0.447-0.558-0.619c-0.227-0.17-0.475-0.309-0.744-0.416c-0.271-0.107-0.53-0.199-0.779-0.279l-1.864-0.529
		c-0.409-0.123-0.784-0.283-1.121-0.479c-0.338-0.189-0.628-0.428-0.869-0.705c-0.242-0.277-0.428-0.604-0.558-0.975
		c-0.131-0.373-0.197-0.801-0.197-1.291c0-0.492,0.097-0.955,0.292-1.389c0.191-0.43,0.477-0.809,0.851-1.131
		c0.375-0.324,0.833-0.576,1.374-0.762c0.543-0.186,1.162-0.277,1.862-0.277c0.458,0,0.884,0.055,1.271,0.162
		c0.39,0.107,0.742,0.26,1.056,0.455c0.316,0.197,0.594,0.432,0.834,0.707c0.242,0.275,0.444,0.578,0.609,0.906H82.7v1.465h-2.085
		C80.615,56.683,80.524,56.308,80.342,56.06z"/>
	<path fill="#FFFFFF" d="M85.434,62.378c0,0.248,0.02,0.479,0.055,0.684c0.038,0.209,0.089,0.404,0.157,0.594
		c0.21,0.566,0.547,0.994,1.011,1.279c0.461,0.287,0.986,0.43,1.57,0.43c0.459,0,0.906-0.063,1.341-0.191
		c0.434-0.125,0.889-0.326,1.366-0.598l0.638,1.08c-0.579,0.398-1.16,0.693-1.745,0.887c-0.584,0.191-1.192,0.287-1.822,0.287
		c-0.595,0-1.148-0.1-1.656-0.297c-0.509-0.197-0.946-0.494-1.311-0.887c-0.367-0.391-0.652-0.879-0.86-1.463
		c-0.207-0.584-0.311-1.266-0.311-2.043c0-0.631,0.087-1.225,0.265-1.785c0.174-0.559,0.437-1.047,0.787-1.465
		c0.349-0.416,0.782-0.748,1.298-0.99c0.517-0.244,1.119-0.367,1.806-0.367c0.664,0,1.218,0.102,1.665,0.301
		c0.444,0.203,0.808,0.469,1.09,0.801c0.28,0.334,0.494,0.711,0.637,1.137c0.146,0.428,0.247,0.859,0.303,1.303
		c0.029,0.217,0.048,0.436,0.055,0.656c0.01,0.221,0.013,0.438,0.013,0.648H85.434z M87.913,58.858c-0.371,0-0.692,0.055-0.966,0.16
		c-0.276,0.104-0.511,0.256-0.703,0.449c-0.195,0.197-0.348,0.438-0.465,0.721c-0.115,0.285-0.203,0.604-0.26,0.953h4.574
		c-0.025-0.328-0.076-0.633-0.159-0.91c-0.082-0.277-0.208-0.52-0.378-0.725s-0.39-0.361-0.654-0.477
		C88.632,58.917,88.303,58.858,87.913,58.858z"/>
	<path fill="#FFFFFF" d="M93.591,57.763h2.808v0.732c0.375-0.291,0.783-0.521,1.227-0.691c0.442-0.17,0.9-0.254,1.372-0.254
		c0.579,0,1.109,0.107,1.591,0.322c0.482,0.217,0.898,0.52,1.249,0.912c0.348,0.393,0.619,0.861,0.813,1.41
		c0.191,0.547,0.288,1.152,0.288,1.816c0,0.711-0.108,1.357-0.322,1.941c-0.217,0.586-0.516,1.084-0.898,1.504
		c-0.384,0.416-0.838,0.742-1.368,0.973c-0.526,0.234-1.105,0.352-1.737,0.352c-0.448,0-0.845-0.047-1.196-0.143
		c-0.348-0.092-0.683-0.213-0.999-0.361v2.854h1.378v1.465h-4.189V69.13h1.21v-9.904h-1.226V57.763z M98.579,58.946
		c-0.409,0-0.8,0.082-1.179,0.246c-0.377,0.164-0.706,0.393-0.982,0.682v4.775c0.186,0.195,0.455,0.367,0.804,0.52
		c0.349,0.154,0.784,0.23,1.308,0.23c0.361,0,0.711-0.07,1.046-0.213s0.63-0.354,0.886-0.633c0.255-0.283,0.459-0.629,0.613-1.043
		c0.153-0.416,0.229-0.895,0.229-1.441c0-0.498-0.072-0.941-0.215-1.328c-0.146-0.385-0.341-0.711-0.588-0.977
		c-0.247-0.268-0.536-0.473-0.865-0.609C99.306,59.015,98.954,58.946,98.579,58.946z"/>
	<path fill="#FFFFFF" d="M107.13,57.763h2.07v1.285h-2.087l-0.024,5.09c0,0.35,0.038,0.629,0.117,0.846
		c0.08,0.215,0.208,0.365,0.384,0.445c0.176,0.084,0.375,0.125,0.596,0.125c0.239,0,0.449-0.023,0.63-0.064
		c0.181-0.043,0.38-0.115,0.596-0.217l0.367,1.064c-0.272,0.143-0.56,0.254-0.861,0.336s-0.656,0.123-1.065,0.123
		c-0.386,0-0.721-0.045-1.009-0.141c-0.285-0.094-0.527-0.25-0.722-0.473c-0.197-0.219-0.342-0.516-0.439-0.891
		c-0.097-0.371-0.146-0.834-0.146-1.393l0.026-4.852h-1.404v-1.285h1.421v-2.113l1.55-0.73V57.763z"/>
	<path fill="#FFFFFF" d="M112.563,62.378c0,0.248,0.019,0.479,0.055,0.684c0.038,0.209,0.088,0.404,0.157,0.594
		c0.21,0.566,0.547,0.994,1.01,1.279c0.462,0.287,0.986,0.43,1.57,0.43c0.46,0,0.907-0.063,1.342-0.191
		c0.433-0.125,0.889-0.326,1.366-0.598l0.638,1.08c-0.579,0.398-1.16,0.693-1.745,0.887c-0.584,0.191-1.192,0.287-1.822,0.287
		c-0.596,0-1.148-0.1-1.656-0.297c-0.509-0.197-0.946-0.494-1.311-0.887c-0.367-0.391-0.653-0.879-0.861-1.463
		c-0.207-0.584-0.311-1.266-0.311-2.043c0-0.631,0.087-1.225,0.265-1.785c0.174-0.559,0.437-1.047,0.787-1.465
		c0.348-0.416,0.782-0.748,1.298-0.99c0.517-0.244,1.118-0.367,1.805-0.367c0.664,0,1.219,0.102,1.665,0.301
		c0.445,0.203,0.808,0.469,1.09,0.801c0.28,0.334,0.494,0.711,0.638,1.137c0.146,0.428,0.246,0.859,0.303,1.303
		c0.028,0.217,0.048,0.436,0.055,0.656c0.009,0.221,0.014,0.438,0.014,0.648H112.563z M115.041,58.858
		c-0.371,0-0.692,0.055-0.967,0.16c-0.276,0.104-0.511,0.256-0.702,0.449c-0.195,0.197-0.348,0.438-0.465,0.721
		c-0.115,0.285-0.203,0.604-0.259,0.953h4.573c-0.024-0.328-0.075-0.633-0.159-0.91c-0.081-0.277-0.208-0.52-0.378-0.725
		s-0.39-0.361-0.655-0.477C115.76,58.917,115.431,58.858,115.041,58.858z"/>
	<path fill="#FFFFFF" d="M121.07,57.763h2.81v1.029h0.018c0.192-0.164,0.396-0.318,0.609-0.465c0.212-0.145,0.435-0.27,0.668-0.379
		c0.232-0.107,0.474-0.191,0.728-0.254c0.252-0.064,0.515-0.096,0.787-0.096c0.636,0,1.185,0.119,1.643,0.354
		c0.461,0.238,0.815,0.605,1.065,1.104c0.215-0.193,0.442-0.379,0.681-0.559c0.238-0.178,0.486-0.332,0.745-0.463
		c0.258-0.131,0.528-0.234,0.812-0.313c0.284-0.08,0.579-0.123,0.886-0.123c0.477,0,0.907,0.066,1.287,0.197
		c0.38,0.131,0.704,0.33,0.97,0.596c0.267,0.268,0.469,0.609,0.61,1.025c0.138,0.418,0.208,0.91,0.208,1.479v4.223h1.226v1.465
		h-4.121v-1.465h1.244v-4.025c0-0.676-0.17-1.189-0.511-1.539c-0.341-0.348-0.833-0.523-1.472-0.523
		c-0.382,0-0.771,0.092-1.167,0.271c-0.397,0.184-0.738,0.414-1.022,0.691v5.125h1.217v1.465h-4.112v-1.465h1.243v-4.025
		c0-0.676-0.172-1.189-0.515-1.539c-0.344-0.348-0.836-0.523-1.478-0.523c-0.369,0-0.74,0.088-1.114,0.266
		c-0.375,0.174-0.731,0.395-1.065,0.654v5.168h1.243v1.465h-4.121v-1.465h1.226v-5.893h-1.226V57.763z"/>
	<path fill="#FFFFFF" d="M138.156,53.335h2.861v5.16c0.375-0.291,0.783-0.521,1.227-0.691c0.442-0.17,0.9-0.254,1.372-0.254
		c0.579,0,1.109,0.107,1.591,0.322c0.482,0.217,0.898,0.52,1.249,0.912c0.348,0.393,0.619,0.861,0.813,1.41
		c0.191,0.547,0.288,1.152,0.288,1.816c0,0.711-0.108,1.352-0.322,1.93c-0.217,0.574-0.516,1.07-0.898,1.484
		c-0.384,0.416-0.838,0.734-1.368,0.959c-0.526,0.225-1.105,0.336-1.737,0.336c-0.437,0-0.846-0.064-1.23-0.191
		c-0.382-0.129-0.711-0.293-0.984-0.498v0.553h-1.582V54.8h-1.279V53.335z M143.197,58.946c-0.415,0-0.812,0.084-1.192,0.254
		s-0.709,0.4-0.988,0.689v4.744c0.182,0.186,0.449,0.354,0.802,0.498c0.35,0.143,0.792,0.217,1.329,0.217
		c0.361,0,0.711-0.066,1.046-0.203c0.335-0.137,0.63-0.344,0.886-0.619c0.255-0.273,0.459-0.617,0.613-1.025
		c0.153-0.408,0.229-0.885,0.229-1.432c0-0.498-0.072-0.941-0.215-1.328c-0.146-0.385-0.34-0.711-0.588-0.977
		c-0.247-0.268-0.536-0.473-0.865-0.609C143.924,59.015,143.571,58.946,143.197,58.946z"/>
	<path fill="#FFFFFF" d="M150.692,62.378c0,0.248,0.019,0.479,0.055,0.684c0.038,0.209,0.089,0.404,0.157,0.594
		c0.21,0.566,0.546,0.994,1.01,1.279c0.462,0.287,0.986,0.43,1.57,0.43c0.46,0,0.906-0.063,1.342-0.191
		c0.433-0.125,0.89-0.326,1.366-0.598l0.638,1.08c-0.579,0.398-1.16,0.693-1.744,0.887c-0.585,0.191-1.193,0.287-1.823,0.287
		c-0.596,0-1.148-0.1-1.656-0.297c-0.509-0.197-0.946-0.494-1.311-0.887c-0.367-0.391-0.653-0.879-0.861-1.463
		c-0.206-0.584-0.311-1.266-0.311-2.043c0-0.631,0.087-1.225,0.265-1.785c0.174-0.559,0.438-1.047,0.787-1.465
		c0.349-0.416,0.782-0.748,1.298-0.99c0.517-0.244,1.118-0.367,1.805-0.367c0.664,0,1.218,0.102,1.665,0.301
		c0.445,0.203,0.808,0.469,1.09,0.801c0.28,0.334,0.494,0.711,0.638,1.137c0.146,0.428,0.246,0.859,0.303,1.303
		c0.028,0.217,0.047,0.436,0.054,0.656c0.01,0.221,0.013,0.438,0.013,0.648H150.692z M153.17,58.858
		c-0.371,0-0.692,0.055-0.967,0.16c-0.276,0.104-0.511,0.256-0.702,0.449c-0.195,0.197-0.348,0.438-0.465,0.721
		c-0.115,0.285-0.203,0.604-0.259,0.953h4.573c-0.024-0.328-0.076-0.633-0.159-0.91c-0.081-0.277-0.208-0.52-0.378-0.725
		c-0.17-0.205-0.39-0.361-0.655-0.477C153.89,58.917,153.561,58.858,153.17,58.858z"/>
	<path fill="#FFFFFF" d="M165.54,59.628h-1.616v-0.545c-0.189,0-0.38,0.033-0.575,0.105c-0.197,0.07-0.378,0.178-0.549,0.324
		c-0.17,0.143-0.32,0.328-0.448,0.553c-0.127,0.225-0.22,0.49-0.276,0.797v4.256h1.499v1.465h-4.377v-1.465h1.219l0.007-5.893
		h-1.227v-1.463h2.82v1.219c0.102-0.184,0.215-0.354,0.344-0.508c0.127-0.158,0.269-0.293,0.426-0.41
		c0.155-0.115,0.329-0.207,0.519-0.271c0.19-0.066,0.395-0.098,0.618-0.098c0.293,0,0.572,0,0.833,0
		c0.261,0,0.522,0.006,0.783,0.016V59.628z"/>
	<path fill="#FFFFFF" d="M171.084,65.331l4.538-5.482c0.155-0.182,0.314-0.379,0.482-0.588c0.167-0.211,0.323-0.432,0.467-0.664
		c0.146-0.232,0.265-0.477,0.357-0.729c0.095-0.252,0.142-0.514,0.142-0.787c0-0.283-0.059-0.551-0.17-0.801
		c-0.115-0.25-0.271-0.467-0.469-0.656c-0.199-0.186-0.435-0.334-0.711-0.443c-0.274-0.105-0.577-0.16-0.906-0.16
		c-0.295,0-0.575,0.047-0.838,0.141c-0.265,0.094-0.496,0.232-0.694,0.414c-0.199,0.18-0.36,0.406-0.481,0.676
		c-0.123,0.27-0.189,0.58-0.2,0.932h-1.533c0.006-0.539,0.112-1.035,0.316-1.494c0.205-0.457,0.477-0.852,0.821-1.184
		c0.343-0.332,0.742-0.59,1.196-0.775c0.454-0.184,0.931-0.275,1.431-0.275c0.579,0,1.103,0.092,1.574,0.275
		c0.471,0.186,0.874,0.439,1.211,0.762c0.333,0.324,0.594,0.709,0.777,1.152c0.186,0.441,0.278,0.92,0.278,1.438
		c0,0.203-0.024,0.422-0.074,0.65c-0.047,0.23-0.13,0.477-0.246,0.742c-0.117,0.262-0.271,0.547-0.46,0.848
		c-0.191,0.301-0.432,0.625-0.719,0.969l-4.028,4.795h5.508v1.498h-7.569V65.331z"/>
	<path fill="#FFFFFF" d="M180.45,65.331l4.537-5.482c0.155-0.182,0.314-0.379,0.483-0.588c0.166-0.211,0.323-0.432,0.467-0.664
		c0.146-0.232,0.265-0.477,0.358-0.729c0.094-0.252,0.142-0.514,0.142-0.787c0-0.283-0.059-0.551-0.17-0.801
		c-0.115-0.25-0.271-0.467-0.469-0.656c-0.199-0.186-0.436-0.334-0.711-0.443c-0.274-0.105-0.577-0.16-0.907-0.16
		c-0.295,0-0.575,0.047-0.838,0.141c-0.265,0.094-0.496,0.232-0.695,0.414c-0.198,0.18-0.359,0.406-0.48,0.676
		c-0.124,0.27-0.189,0.58-0.201,0.932h-1.533c0.006-0.539,0.112-1.035,0.316-1.494c0.204-0.457,0.477-0.852,0.822-1.184
		c0.342-0.332,0.741-0.59,1.195-0.775c0.455-0.184,0.932-0.275,1.431-0.275c0.578,0,1.103,0.092,1.574,0.275
		c0.471,0.186,0.874,0.439,1.21,0.762c0.333,0.324,0.594,0.709,0.778,1.152c0.186,0.441,0.278,0.92,0.278,1.438
		c0,0.203-0.025,0.422-0.074,0.65c-0.048,0.23-0.13,0.477-0.247,0.742c-0.117,0.262-0.27,0.547-0.459,0.848
		c-0.191,0.301-0.432,0.625-0.719,0.969l-4.028,4.795h5.508v1.498h-7.568V65.331z"/>
</g>
<g>
	<path fill="#FFFFFF" d="M279.597,44.813v-6.06c-1.244-0.203-2.226-0.583-2.949-1.15c-0.72-0.563-1.288-1.228-1.7-1.995h-2.24
		v-3.236h4.724v0.206l0.038-0.02c0,1.018,0.351,1.792,1.054,2.325c0.703,0.532,1.744,0.802,3.124,0.802
		c1.257,0,2.251-0.246,2.983-0.735c0.734-0.49,1.104-1.187,1.104-2.09c0-0.463-0.124-0.852-0.369-1.166
		c-0.244-0.315-0.552-0.575-0.922-0.783c-0.37-0.207-0.781-0.373-1.231-0.499c-0.453-0.125-0.887-0.244-1.3-0.357l-3.313-0.887
		c-0.716-0.186-1.374-0.433-1.976-0.743c-0.604-0.306-1.12-0.688-1.554-1.139c-0.434-0.452-0.769-0.984-1.008-1.6
		c-0.237-0.615-0.356-1.329-0.356-2.146c0-0.727,0.131-1.402,0.396-2.022c0.262-0.623,0.644-1.17,1.146-1.647
		s1.119-0.873,1.854-1.187c0.734-0.314,1.564-0.539,2.495-0.678V11.59h3.706v6.438c1.068,0.189,1.99,0.527,2.768,1.017
		c0.778,0.488,1.406,1.072,1.883,1.75h1.9v3.238h-3.934l-0.433,0.058v-0.058h-0.038v-0.414c-0.125-0.816-0.533-1.474-1.225-1.977
		c-0.688-0.501-1.604-0.753-2.747-0.753c-1.367,0-2.409,0.223-3.125,0.669c-0.714,0.445-1.072,1.058-1.072,1.835
		c0,0.527,0.115,0.948,0.347,1.26c0.235,0.316,0.525,0.57,0.878,0.764c0.351,0.195,0.735,0.346,1.155,0.452
		c0.421,0.107,0.825,0.215,1.216,0.33l3.274,0.997c0.828,0.251,1.571,0.537,2.231,0.856c0.657,0.32,1.213,0.694,1.666,1.119
		c0.452,0.429,0.799,0.927,1.043,1.499c0.245,0.569,0.368,1.239,0.368,2.004c0,0.777-0.147,1.501-0.442,2.173
		c-0.296,0.67-0.711,1.271-1.253,1.798c-0.539,0.528-1.188,0.974-1.945,1.336c-0.761,0.365-1.6,0.623-2.516,0.773v6.06H279.597z"/>
	<path fill="#FFFFFF" d="M297.214,38.074h2.768V17.199l-5.779,3.145V16.41l7.943-4.443h1.507v26.107h2.804v3.238h-9.242V38.074z"/>
	<path fill="#FFFFFF" d="M314.776,24.484c0.704-0.478,1.426-0.839,2.166-1.083c0.74-0.245,1.587-0.366,2.54-0.366
		c1.405,0,2.697,0.25,3.878,0.753c1.18,0.502,2.193,1.18,3.04,2.032c0.848,0.853,1.508,1.848,1.976,2.982
		c0.472,1.136,0.708,2.338,0.708,3.604c0,1.281-0.233,2.494-0.696,3.644c-0.465,1.147-1.124,2.153-1.979,3.021
		c-0.853,0.866-1.878,1.554-3.076,2.062c-1.199,0.507-2.531,0.762-3.999,0.762c-1.118,0-2.16-0.147-3.125-0.443
		c-0.968-0.294-1.839-0.708-2.617-1.242s-1.453-1.17-2.024-1.912c-0.57-0.74-1.026-1.548-1.364-2.427l3.087-1.542
		c0.201,0.638,0.497,1.232,0.885,1.776c0.389,0.547,0.847,1.017,1.374,1.413c0.527,0.394,1.11,0.703,1.75,0.921
		c0.642,0.22,1.318,0.331,2.035,0.331c0.902,0,1.738-0.167,2.511-0.499c0.772-0.333,1.443-0.789,2.015-1.366
		c0.571-0.576,1.02-1.25,1.347-2.023c0.326-0.771,0.489-1.597,0.489-2.476c0-0.888-0.163-1.715-0.489-2.475
		c-0.327-0.759-0.778-1.417-1.355-1.977c-0.579-0.559-1.252-0.998-2.024-1.316c-0.771-0.322-1.604-0.482-2.492-0.482
		c-1.006,0-1.93,0.18-2.779,0.537c-0.846,0.358-1.551,0.838-2.115,1.44l-2.768-0.432V12.775h16.074V15.9h-12.97V24.484z"/>
</g>
<g>
	<path fill="#FFFFFF" d="M270.904,69.292c-0.782,0-1.497-0.146-2.145-0.438c-0.648-0.292-1.227-0.706-1.734-1.244
		c-0.509-0.539-0.895-1.176-1.159-1.914c-0.264-0.736-0.396-1.502-0.396-2.294c0-0.817,0.133-1.585,0.4-2.302
		c0.266-0.718,0.64-1.343,1.12-1.873c0.481-0.531,1.055-0.949,1.719-1.256c0.666-0.307,1.396-0.459,2.194-0.459
		c0.803,0,1.536,0.152,2.205,0.459c0.667,0.307,1.24,0.725,1.719,1.256c0.479,0.53,0.85,1.155,1.114,1.873
		c0.264,0.717,0.396,1.484,0.396,2.302s-0.133,1.583-0.4,2.298c-0.266,0.715-0.64,1.339-1.121,1.872
		c-0.48,0.534-1.054,0.953-1.719,1.26C272.431,69.139,271.701,69.292,270.904,69.292z M270.904,67.901
		c0.594,0,1.13-0.122,1.61-0.367c0.481-0.242,0.891-0.571,1.229-0.982c0.339-0.41,0.601-0.888,0.785-1.43
		c0.184-0.544,0.276-1.117,0.276-1.72c0-0.618-0.101-1.215-0.303-1.79c-0.202-0.576-0.483-1.063-0.845-1.462s-0.78-0.706-1.26-0.923
		c-0.478-0.217-0.977-0.325-1.494-0.325c-0.594,0-1.132,0.122-1.615,0.366s-0.894,0.572-1.232,0.982
		c-0.339,0.411-0.601,0.89-0.785,1.436c-0.185,0.545-0.276,1.117-0.276,1.716c0,0.698,0.102,1.319,0.307,1.864
		c0.204,0.545,0.474,0.999,0.811,1.36s0.737,0.665,1.204,0.907C269.781,67.779,270.31,67.901,270.904,67.901z"/>
	<path fill="#FFFFFF" d="M280.171,61.323h1.795v1.129h-1.795v5.33h1.212v1.285h-3.768v-1.285h1.166v-5.33h-1.278v-1.129h1.278v-1.21
		c0.01-0.448,0.075-0.84,0.194-1.174c0.119-0.333,0.288-0.612,0.508-0.837s0.483-0.391,0.793-0.501
		c0.308-0.109,0.651-0.165,1.031-0.165c0.264,0,0.501,0.013,0.71,0.038s0.396,0.06,0.561,0.101c0.164,0.043,0.311,0.089,0.438,0.139
		s0.24,0.1,0.34,0.15l-0.427,0.993c-0.159-0.085-0.366-0.157-0.623-0.217s-0.525-0.09-0.805-0.09c-0.413,0-0.738,0.128-0.975,0.386
		c-0.236,0.256-0.355,0.633-0.355,1.132V61.323z"/>
	<path fill="#FFFFFF" d="M285.74,61.323h1.794v1.129h-1.794v5.33h1.211v1.285h-3.768v-1.285h1.167v-5.33h-1.278v-1.129h1.278v-1.21
		c0.01-0.448,0.074-0.84,0.194-1.174c0.119-0.333,0.288-0.612,0.508-0.837s0.483-0.391,0.792-0.501
		c0.31-0.109,0.653-0.165,1.032-0.165c0.264,0,0.5,0.013,0.709,0.038c0.21,0.025,0.397,0.06,0.562,0.101
		c0.164,0.043,0.31,0.089,0.438,0.139c0.127,0.05,0.24,0.1,0.339,0.15l-0.425,0.993c-0.159-0.085-0.368-0.157-0.625-0.217
		s-0.524-0.09-0.803-0.09c-0.414,0-0.739,0.128-0.976,0.386c-0.236,0.256-0.355,0.633-0.355,1.132V61.323z"/>
</g>
<g>
	<g>
		<path fill="#FFFFFF" d="M301.134,71.149v-4.063c-0.833-0.135-1.49-0.391-1.975-0.769c-0.482-0.379-0.864-0.824-1.141-1.337h-1.501
			v-2.17h3.166v0.139l0.024-0.013c0,0.681,0.235,1.2,0.706,1.558c0.471,0.358,1.169,0.537,2.095,0.537
			c0.84,0,1.507-0.165,1.999-0.492c0.492-0.328,0.737-0.795,0.737-1.4c0-0.311-0.082-0.571-0.245-0.781
			c-0.164-0.211-0.37-0.386-0.618-0.524c-0.248-0.138-0.524-0.251-0.826-0.333c-0.303-0.086-0.593-0.166-0.871-0.24l-2.22-0.593
			c-0.479-0.126-0.92-0.293-1.323-0.499c-0.404-0.205-0.751-0.46-1.042-0.763c-0.289-0.304-0.515-0.66-0.674-1.072
			c-0.16-0.412-0.24-0.891-0.24-1.438c0-0.487,0.089-0.94,0.266-1.356c0.176-0.416,0.433-0.784,0.77-1.104
			c0.335-0.318,0.75-0.584,1.242-0.795c0.491-0.209,1.049-0.361,1.671-0.453v-4.302h2.485V53.2c0.714,0.127,1.333,0.354,1.854,0.682
			c0.521,0.328,0.941,0.719,1.261,1.173h1.274v2.169h-2.636l-0.29,0.038v-0.038h-0.026v-0.276c-0.084-0.548-0.356-0.988-0.819-1.325
			c-0.462-0.336-1.076-0.504-1.842-0.504c-0.917,0-1.614,0.149-2.094,0.448c-0.479,0.298-0.718,0.708-0.718,1.229
			c0,0.354,0.077,0.635,0.232,0.845c0.156,0.21,0.352,0.381,0.587,0.511c0.235,0.131,0.494,0.231,0.775,0.303
			c0.282,0.072,0.554,0.145,0.813,0.221l2.195,0.668c0.555,0.169,1.053,0.359,1.494,0.574s0.813,0.465,1.116,0.751
			c0.304,0.286,0.536,0.62,0.7,1.002c0.164,0.384,0.246,0.831,0.246,1.344c0,0.521-0.1,1.007-0.296,1.458
			c-0.198,0.449-0.478,0.85-0.839,1.203c-0.362,0.354-0.798,0.652-1.306,0.896c-0.509,0.244-1.07,0.416-1.684,0.517v4.063H301.134z"
			/>
		<path fill="#FFFFFF" d="M312.182,66.634h1.477c0.454-1.295,0.955-2.609,1.501-3.941c0.547-1.332,1.102-2.63,1.665-3.892
			c0.563-1.261,1.118-2.461,1.664-3.602c0.548-1.138,1.049-2.167,1.503-3.083h-7.164v1.477h-2.421v-3.911h12.548v1.892
			c-0.554,1.094-1.136,2.252-1.741,3.475c-0.604,1.225-1.203,2.479-1.798,3.766c-0.593,1.287-1.165,2.59-1.721,3.91
			c-0.555,1.319-1.06,2.624-1.514,3.91h1.591v2.168h-5.59V66.634z"/>
		<path fill="#FFFFFF" d="M327.469,57.526c0.471-0.318,0.955-0.561,1.45-0.725c0.497-0.164,1.063-0.246,1.702-0.246
			c0.942,0,1.809,0.168,2.599,0.504c0.791,0.338,1.469,0.791,2.037,1.362c0.567,0.573,1.009,1.239,1.325,2.001
			c0.314,0.76,0.473,1.564,0.473,2.414c0,0.857-0.155,1.672-0.467,2.441c-0.311,0.768-0.754,1.444-1.325,2.023
			c-0.571,0.58-1.258,1.041-2.062,1.381c-0.803,0.34-1.696,0.512-2.682,0.512c-0.746,0-1.445-0.1-2.092-0.297
			c-0.649-0.197-1.231-0.475-1.753-0.832s-0.973-0.783-1.356-1.281c-0.384-0.494-0.687-1.037-0.914-1.627l2.068-1.033
			c0.135,0.428,0.331,0.826,0.593,1.192c0.259,0.364,0.568,0.679,0.921,0.944c0.354,0.266,0.743,0.471,1.172,0.619
			c0.43,0.147,0.884,0.221,1.361,0.221c0.606,0,1.168-0.111,1.687-0.334c0.516-0.223,0.966-0.527,1.35-0.914
			c0.383-0.387,0.682-0.84,0.9-1.357c0.218-0.518,0.328-1.069,0.328-1.658c0-0.597-0.11-1.15-0.328-1.658
			c-0.219-0.508-0.522-0.95-0.908-1.324c-0.388-0.375-0.838-0.67-1.355-0.883c-0.518-0.215-1.075-0.322-1.673-0.322
			c-0.672,0-1.29,0.12-1.858,0.359c-0.569,0.24-1.04,0.562-1.421,0.965l-1.853-0.29V49.682h10.771v2.095h-8.69V57.526z"/>
	</g>
</g>
<g>
	<path fill="#FFFFFF" d="M406.557,44.813v-6.034c-1.237-0.202-2.216-0.582-2.934-1.146c-0.72-0.56-1.282-1.223-1.696-1.986h-2.23
		v-3.221h4.703v0.205l0.04-0.019c0,1.013,0.351,1.784,1.05,2.314c0.7,0.53,1.735,0.798,3.108,0.798c1.251,0,2.242-0.244,2.973-0.731
		c0.73-0.488,1.097-1.181,1.097-2.081c0-0.461-0.122-0.849-0.366-1.161c-0.244-0.314-0.551-0.573-0.92-0.779
		c-0.366-0.206-0.774-0.372-1.226-0.496c-0.45-0.125-0.883-0.244-1.293-0.356l-3.299-0.884c-0.713-0.184-1.369-0.431-1.968-0.738
		c-0.601-0.305-1.116-0.685-1.547-1.135c-0.43-0.45-0.766-0.979-1.003-1.592c-0.236-0.612-0.354-1.323-0.354-2.137
		c0-0.725,0.129-1.396,0.392-2.013c0.262-0.62,0.643-1.166,1.142-1.64c0.501-0.474,1.118-0.869,1.847-1.181
		c0.732-0.313,1.559-0.537,2.484-0.676v-6.391h3.692v6.41c1.063,0.188,1.979,0.525,2.756,1.013c0.773,0.486,1.399,1.068,1.873,1.743
		h1.893v3.223h-3.917l-0.433,0.058v-0.058h-0.035v-0.412c-0.124-0.813-0.531-1.467-1.218-1.968c-0.688-0.499-1.601-0.75-2.737-0.75
		c-1.361,0-2.399,0.222-3.111,0.667c-0.713,0.442-1.069,1.053-1.069,1.827c0,0.525,0.116,0.945,0.347,1.256
		c0.23,0.314,0.522,0.567,0.872,0.76c0.351,0.193,0.734,0.344,1.152,0.45c0.42,0.106,0.823,0.213,1.21,0.328l3.261,0.992
		c0.826,0.251,1.565,0.535,2.223,0.853c0.653,0.32,1.206,0.691,1.656,1.113c0.45,0.428,0.797,0.923,1.042,1.493
		c0.243,0.566,0.364,1.234,0.364,1.996c0,0.774-0.146,1.495-0.439,2.164c-0.295,0.667-0.709,1.265-1.248,1.791
		c-0.536,0.526-1.183,0.97-1.938,1.33c-0.758,0.364-1.591,0.621-2.502,0.771v6.034H406.557z"/>
	<path fill="#FFFFFF" d="M421.212,38.573l9.991-12.071c0.336-0.399,0.688-0.83,1.057-1.293c0.37-0.463,0.715-0.95,1.032-1.463
		c0.319-0.512,0.581-1.046,0.787-1.601c0.207-0.559,0.31-1.136,0.31-1.735c0-0.624-0.127-1.213-0.376-1.762
		c-0.251-0.55-0.592-1.032-1.03-1.444c-0.437-0.412-0.959-0.736-1.563-0.974c-0.607-0.238-1.271-0.355-1.998-0.355
		c-0.649,0-1.265,0.103-1.845,0.309c-0.581,0.206-1.091,0.509-1.528,0.908c-0.437,0.4-0.789,0.897-1.058,1.491
		c-0.271,0.593-0.417,1.278-0.441,2.052h-3.374c0.013-1.187,0.244-2.284,0.695-3.289c0.447-1.007,1.051-1.875,1.807-2.606
		c0.759-0.731,1.635-1.3,2.634-1.705c1-0.406,2.051-0.609,3.148-0.609c1.276,0,2.431,0.203,3.468,0.609
		c1.037,0.405,1.925,0.967,2.661,1.678c0.738,0.71,1.309,1.554,1.717,2.529c0.404,0.974,0.607,2.03,0.607,3.168
		c0,0.45-0.054,0.927-0.158,1.434c-0.107,0.507-0.291,1.051-0.546,1.631c-0.253,0.582-0.593,1.204-1.01,1.865
		c-0.42,0.664-0.947,1.376-1.587,2.138l-8.862,10.551h12.126v3.298h-16.663V38.573z"/>
	<path fill="#FFFFFF" d="M446.123,24.572c0.699-0.476,1.418-0.835,2.153-1.078c0.737-0.244,1.581-0.365,2.532-0.365
		c1.398,0,2.686,0.25,3.861,0.75c1.175,0.501,2.182,1.175,3.026,2.024c0.842,0.849,1.499,1.84,1.968,2.969
		c0.468,1.132,0.702,2.328,0.702,3.589c0,1.275-0.231,2.483-0.693,3.628c-0.462,1.143-1.119,2.145-1.968,3.008
		c-0.851,0.862-1.871,1.545-3.065,2.053c-1.192,0.505-2.518,0.759-3.981,0.759c-1.111,0-2.149-0.146-3.11-0.441
		c-0.964-0.293-1.83-0.706-2.605-1.236c-0.776-0.533-1.447-1.166-2.016-1.904c-0.568-0.737-1.02-1.542-1.36-2.417l3.074-1.535
		c0.202,0.636,0.493,1.228,0.882,1.769c0.387,0.544,0.844,1.013,1.369,1.407c0.523,0.392,1.107,0.699,1.741,0.917
		c0.64,0.219,1.314,0.33,2.025,0.33c0.898,0,1.733-0.167,2.502-0.498c0.77-0.331,1.437-0.785,2.006-1.36
		c0.566-0.573,1.014-1.245,1.338-2.014c0.326-0.768,0.49-1.589,0.49-2.465c0-0.884-0.164-1.707-0.49-2.464
		c-0.324-0.756-0.774-1.41-1.348-1.968c-0.576-0.556-1.246-0.994-2.016-1.31c-0.767-0.321-1.594-0.48-2.482-0.48
		c-0.999,0-1.921,0.18-2.764,0.536c-0.843,0.357-1.548,0.834-2.109,1.434l-2.755-0.431V12.914h16.006v3.111h-12.913V24.572z"/>
</g>
<g>
	<g>
		<path fill="#FFFFFF" d="M422.248,71.988v-4.062c-0.833-0.135-1.49-0.392-1.975-0.77c-0.483-0.379-0.864-0.824-1.142-1.337h-1.501
			v-2.169h3.166v0.138l0.024-0.013c0,0.682,0.235,1.201,0.707,1.558c0.471,0.358,1.168,0.537,2.094,0.537
			c0.841,0,1.507-0.165,1.999-0.492c0.493-0.328,0.738-0.795,0.738-1.399c0-0.312-0.082-0.572-0.245-0.782
			c-0.165-0.211-0.37-0.386-0.619-0.524c-0.248-0.138-0.523-0.25-0.826-0.333c-0.302-0.085-0.593-0.165-0.87-0.24l-2.22-0.593
			c-0.479-0.126-0.921-0.293-1.324-0.499c-0.403-0.205-0.75-0.46-1.041-0.763c-0.29-0.303-0.515-0.66-0.674-1.072
			c-0.16-0.412-0.24-0.891-0.24-1.438c0-0.487,0.088-0.939,0.265-1.355c0.176-0.417,0.433-0.785,0.771-1.104
			c0.335-0.319,0.75-0.585,1.241-0.796c0.492-0.209,1.049-0.361,1.672-0.453v-4.302h2.485v4.314
			c0.713,0.126,1.331,0.353,1.854,0.682c0.521,0.327,0.94,0.718,1.26,1.173h1.275v2.169h-2.638l-0.289,0.037v-0.037h-0.025v-0.277
			c-0.085-0.547-0.358-0.988-0.82-1.325c-0.462-0.336-1.076-0.504-1.841-0.504c-0.917,0-1.614,0.149-2.094,0.448
			s-0.719,0.708-0.719,1.229c0,0.354,0.078,0.635,0.232,0.845c0.156,0.211,0.352,0.381,0.587,0.511
			c0.235,0.131,0.495,0.231,0.775,0.303c0.283,0.072,0.554,0.146,0.814,0.222l2.194,0.668c0.555,0.168,1.053,0.359,1.494,0.573
			c0.441,0.215,0.814,0.465,1.117,0.751s0.535,0.62,0.7,1.002c0.163,0.384,0.245,0.831,0.245,1.344c0,0.521-0.099,1.007-0.296,1.458
			c-0.198,0.449-0.478,0.85-0.839,1.203s-0.798,0.652-1.306,0.896c-0.509,0.244-1.07,0.416-1.683,0.518v4.062H422.248z"/>
		<path fill="#FFFFFF" d="M434.052,67.473h1.854V53.485l-3.873,2.105v-2.636l5.323-2.977h1.01v17.494h1.879v2.169h-6.193V67.473z"/>
		<path fill="#FFFFFF" d="M450.083,69.869c-1.363,0-2.502-0.252-3.418-0.757c-0.917-0.504-1.65-1.198-2.201-2.081
			c-0.55-0.883-0.943-1.917-1.179-3.103s-0.354-2.461-0.354-3.821c0-1.456,0.159-2.815,0.479-4.081
			c0.319-1.265,0.748-2.281,1.286-3.046c0.537-0.765,1.218-1.417,2.037-1.954c0.82-0.539,1.943-0.808,3.374-0.808
			c1.353,0,2.479,0.214,3.381,0.644c0.898,0.428,1.642,1.087,2.225,1.973c0.585,0.888,0.995,1.958,1.229,3.21
			c0.236,1.253,0.354,2.582,0.354,3.986c0,1.369-0.117,2.652-0.354,3.847c-0.234,1.194-0.632,2.234-1.191,3.121
			c-0.559,0.888-1.301,1.588-2.226,2.102C452.601,69.612,451.454,69.869,450.083,69.869z M450.083,67.623
			c0.984,0,1.777-0.198,2.377-0.598c0.602-0.399,1.056-0.944,1.362-1.634c0.308-0.69,0.536-1.494,0.688-2.415
			c0.15-0.922,0.227-1.903,0.227-2.945c0-1.001-0.06-1.962-0.177-2.883c-0.117-0.92-0.345-1.734-0.682-2.439
			c-0.336-0.707-0.807-1.271-1.412-1.69c-0.605-0.421-1.392-0.631-2.358-0.631c-1.002,0-1.792,0.21-2.371,0.631
			c-0.581,0.42-1.014,0.927-1.3,1.52c-0.285,0.593-0.512,1.407-0.675,2.44c-0.164,1.035-0.245,2.052-0.245,3.053
			c0,1.042,0.053,2.023,0.157,2.945c0.104,0.921,0.319,1.725,0.644,2.415c0.322,0.689,0.785,1.234,1.388,1.634
			C448.306,67.425,449.1,67.623,450.083,67.623z"/>
		<path fill="#FFFFFF" d="M466.858,69.869c-1.362,0-2.501-0.252-3.418-0.757c-0.916-0.504-1.649-1.198-2.201-2.081
			c-0.55-0.883-0.943-1.917-1.179-3.103s-0.354-2.461-0.354-3.821c0-1.456,0.16-2.815,0.479-4.081
			c0.319-1.265,0.748-2.281,1.287-3.046c0.538-0.765,1.217-1.417,2.037-1.954c0.819-0.539,1.943-0.808,3.373-0.808
			c1.354,0,2.48,0.214,3.381,0.644c0.898,0.428,1.642,1.087,2.226,1.973c0.585,0.888,0.994,1.958,1.229,3.21
			c0.235,1.253,0.354,2.582,0.354,3.986c0,1.369-0.118,2.652-0.354,3.847s-0.633,2.234-1.191,3.121
			c-0.56,0.888-1.302,1.588-2.226,2.102C469.376,69.612,468.229,69.869,466.858,69.869z M466.858,67.623
			c0.984,0,1.777-0.198,2.378-0.598c0.602-0.399,1.056-0.944,1.361-1.634c0.308-0.69,0.537-1.494,0.688-2.415
			c0.151-0.922,0.227-1.903,0.227-2.945c0-1.001-0.059-1.962-0.176-2.883c-0.118-0.92-0.345-1.734-0.682-2.439
			c-0.336-0.707-0.807-1.271-1.413-1.69c-0.605-0.421-1.392-0.631-2.358-0.631c-1,0-1.791,0.21-2.371,0.631
			c-0.58,0.42-1.013,0.927-1.299,1.52s-0.511,1.407-0.675,2.44c-0.164,1.035-0.246,2.052-0.246,3.053
			c0,1.042,0.053,2.023,0.157,2.945c0.106,0.921,0.32,1.725,0.644,2.415c0.324,0.689,0.786,1.234,1.388,1.634
			S465.875,67.623,466.858,67.623z"/>
	</g>
</g>
<line fill="none" stroke="#FFFFFF" stroke-miterlimit="10" x1="247.492" y1="11.201" x2="247.492" y2="73.003"/>
<g>
	<g>
		<path fill="#FFFFFF" d="M351.833,42.664c0.005-0.921,0.154-1.762,0.444-2.519c0.286-0.758,0.691-1.407,1.208-1.951
			c0.519-0.544,1.131-0.962,1.846-1.254c0.711-0.293,1.495-0.438,2.35-0.438c0.86,0,1.649,0.146,2.367,0.438
			c0.714,0.292,1.327,0.707,1.838,1.242c0.509,0.536,0.906,1.183,1.192,1.94c0.284,0.757,0.428,1.598,0.428,2.521
			c0,0.904-0.144,1.738-0.428,2.5c-0.286,0.76-0.684,1.415-1.192,1.964c-0.511,0.545-1.124,0.973-1.838,1.276
			c-0.718,0.304-1.507,0.455-2.367,0.455c-0.877,0-1.673-0.151-2.384-0.449c-0.714-0.302-1.324-0.723-1.834-1.266
			c-0.512-0.545-0.907-1.195-1.191-1.951C351.984,44.414,351.837,43.579,351.833,42.664z M354.047,42.664
			c0,0.667,0.096,1.271,0.286,1.812c0.192,0.54,0.453,0.998,0.788,1.377c0.332,0.378,0.719,0.67,1.158,0.877
			c0.438,0.206,0.904,0.311,1.4,0.311c0.518,0,0.998-0.102,1.445-0.304c0.443-0.203,0.832-0.495,1.163-0.873
			c0.329-0.378,0.588-0.837,0.776-1.377c0.186-0.539,0.281-1.146,0.281-1.822c0-0.704-0.096-1.331-0.281-1.878
			c-0.188-0.547-0.444-1.005-0.771-1.372c-0.325-0.367-0.714-0.645-1.163-0.832c-0.45-0.187-0.934-0.281-1.451-0.281
			c-0.496,0-0.962,0.095-1.4,0.281c-0.439,0.188-0.826,0.465-1.158,0.832c-0.335,0.367-0.596,0.825-0.788,1.372
			C354.143,41.333,354.047,41.96,354.047,42.664z"/>
		<path fill="#FFFFFF" d="M374.144,39.302h-2.137v-0.72c-0.247,0-0.501,0.046-0.759,0.141c-0.259,0.095-0.501,0.236-0.726,0.428
			c-0.226,0.19-0.423,0.434-0.591,0.73s-0.292,0.646-0.365,1.053v5.622h1.979v1.936h-5.779v-1.936h1.607l0.012-7.782h-1.619v-1.935
			h3.722v1.608c0.136-0.241,0.287-0.463,0.455-0.67c0.169-0.206,0.354-0.386,0.563-0.539c0.204-0.153,0.433-0.274,0.686-0.36
			c0.251-0.086,0.522-0.129,0.815-0.129c0.388,0,0.757,0,1.102,0c0.344,0,0.689,0.007,1.035,0.022V39.302z"/>
	</g>
	<line fill="none" stroke="#FFFFFF" stroke-miterlimit="10" x1="350.864" y1="29.791" x2="374.585" y2="29.791"/>
	<line fill="none" stroke="#FFFFFF" stroke-miterlimit="10" x1="350.864" y1="54.414" x2="374.585" y2="54.414"/>
</g>
<g>
	<path fill="#FFFFFF" d="M391.263,69.292c-0.782,0-1.497-0.146-2.145-0.438c-0.648-0.292-1.227-0.706-1.734-1.244
		c-0.509-0.539-0.895-1.176-1.159-1.914c-0.264-0.736-0.396-1.502-0.396-2.294c0-0.817,0.133-1.585,0.4-2.302
		c0.266-0.718,0.64-1.343,1.12-1.873c0.481-0.531,1.055-0.949,1.719-1.256c0.666-0.307,1.396-0.459,2.194-0.459
		c0.803,0,1.536,0.152,2.205,0.459c0.667,0.307,1.24,0.725,1.719,1.256c0.479,0.53,0.85,1.155,1.114,1.873
		c0.264,0.717,0.396,1.484,0.396,2.302s-0.133,1.583-0.4,2.298c-0.266,0.715-0.64,1.339-1.121,1.872
		c-0.48,0.534-1.054,0.953-1.719,1.26C392.791,69.139,392.06,69.292,391.263,69.292z M391.263,67.901c0.594,0,1.13-0.122,1.61-0.367
		c0.481-0.242,0.891-0.571,1.229-0.982c0.339-0.41,0.601-0.888,0.785-1.43c0.184-0.544,0.276-1.117,0.276-1.72
		c0-0.618-0.101-1.215-0.303-1.79c-0.202-0.576-0.483-1.063-0.845-1.462s-0.78-0.706-1.26-0.923
		c-0.478-0.217-0.977-0.325-1.494-0.325c-0.594,0-1.132,0.122-1.615,0.366s-0.894,0.572-1.232,0.982
		c-0.339,0.411-0.601,0.89-0.785,1.436c-0.185,0.545-0.276,1.117-0.276,1.716c0,0.698,0.102,1.319,0.307,1.864
		c0.204,0.545,0.474,0.999,0.811,1.36s0.737,0.665,1.204,0.907C390.14,67.779,390.669,67.901,391.263,67.901z"/>
	<path fill="#FFFFFF" d="M400.531,61.323h1.795v1.129h-1.795v5.33h1.212v1.285h-3.768v-1.285h1.166v-5.33h-1.278v-1.129h1.278v-1.21
		c0.01-0.448,0.075-0.84,0.194-1.174c0.119-0.333,0.288-0.612,0.508-0.837s0.483-0.391,0.793-0.501
		c0.308-0.109,0.651-0.165,1.031-0.165c0.264,0,0.501,0.013,0.71,0.038s0.396,0.06,0.561,0.101c0.164,0.043,0.311,0.089,0.438,0.139
		s0.24,0.1,0.34,0.15l-0.427,0.993c-0.159-0.085-0.366-0.157-0.623-0.217s-0.525-0.09-0.805-0.09c-0.413,0-0.738,0.128-0.975,0.386
		c-0.236,0.256-0.355,0.633-0.355,1.132V61.323z"/>
	<path fill="#FFFFFF" d="M406.099,61.323h1.794v1.129h-1.794v5.33h1.211v1.285h-3.768v-1.285h1.167v-5.33h-1.278v-1.129h1.278v-1.21
		c0.01-0.448,0.074-0.84,0.194-1.174c0.119-0.333,0.288-0.612,0.508-0.837s0.483-0.391,0.792-0.501
		c0.31-0.109,0.653-0.165,1.032-0.165c0.264,0,0.5,0.013,0.709,0.038c0.21,0.025,0.397,0.06,0.562,0.101
		c0.164,0.043,0.31,0.089,0.438,0.139c0.127,0.05,0.24,0.1,0.339,0.15l-0.425,0.993c-0.159-0.085-0.368-0.157-0.625-0.217
		s-0.524-0.09-0.803-0.09c-0.414,0-0.739,0.128-0.976,0.386c-0.236,0.256-0.355,0.633-0.355,1.132V61.323z"/>
</g>
</svg>
